# This file uses centimeters as units for non-parametric coordinates.

g default
v -1.065539 2.288738 -1.162056
v -1.065539 2.288738 1.163495
v -1.683388 1.515784 -1.162056
v -1.683388 1.515784 1.163495
v -1.765055 1.581063 -1.162056
v -1.765055 1.581063 1.163495
v -1.147206 2.354017 -1.162056
v -1.147206 2.354017 1.163495
v 1.101388 2.372645 -1.156170
v 1.101388 2.372645 1.169381
v 2.073013 2.560107 -1.156170
v 2.073013 2.560107 1.169381
v 2.092819 2.457449 -1.156170
v 2.092819 2.457449 1.169381
v 1.121195 2.269988 -1.156170
v 1.121195 2.269988 1.169381
v -1.162775 2.270919 1.086314
v 1.162775 2.270919 1.086314
v -1.162775 2.010071 2.040859
v 1.162775 2.010071 2.040859
v -1.162775 2.110924 2.068419
v 1.162775 2.110924 2.068419
v -1.162775 2.371772 1.113874
v 1.162775 2.371772 1.113874
v -1.162775 2.363657 -1.134078
v 1.162775 2.363657 -1.134078
v -1.162775 1.782018 -1.934635
v 1.162775 1.782018 -1.934635
v -1.162775 1.697435 -1.873182
v 1.162775 1.697435 -1.873182
v -1.162775 2.279074 -1.072624
v 1.162775 2.279074 -1.072624
v -1.164580 0.000000 1.164580
v 1.164580 0.000000 1.164580
v -1.164580 2.329160 1.164580
v 1.164580 2.329160 1.164580
v -1.164580 2.329160 -1.164580
v 1.164580 2.329160 -1.164580
v -1.164580 0.000000 -1.164580
v 1.164580 0.000000 -1.164580
v -1.037900 2.329160 1.037900
v 1.037900 2.329160 1.037900
v 1.037900 2.329160 -1.037900
v -1.037900 2.329160 -1.037900
v -1.037900 0.137511 1.037900
v 1.037900 0.137511 1.037900
v 1.037900 0.137511 -1.037900
v -1.037900 0.137511 -1.037900
vt 0.185072 0.271576
vt 0.185072 0.243392
vt 0.177302 0.243392
vt 0.177302 0.271576
vt 0.176275 0.243392
vt 0.176275 0.271576
vt 0.184045 0.243392
vt 0.184045 0.271576
vt 0.212321 0.271505
vt 0.212321 0.243321
vt 0.224540 0.243321
vt 0.224540 0.271505
vt 0.224789 0.243321
vt 0.224789 0.271505
vt 0.212570 0.243321
vt 0.212570 0.271505
vt 0.183849 0.244328
vt 0.213093 0.244328
vt 0.213093 0.232760
vt 0.183849 0.232760
vt 0.213093 0.232426
vt 0.183849 0.232426
vt 0.213093 0.243994
vt 0.183849 0.243994
vt 0.183849 0.271237
vt 0.213093 0.271237
vt 0.213093 0.280939
vt 0.183849 0.280939
vt 0.213093 0.280194
vt 0.183849 0.280194
vt 0.213093 0.270492
vt 0.183849 0.270492
vt 0.183826 0.243379
vt 0.213116 0.243379
vt 0.213116 0.243379
vt 0.183826 0.243379
vt 0.529340 0.244915
vt 0.555443 0.244915
vt 0.555443 0.270071
vt 0.529340 0.270071
vt 0.183826 0.271607
vt 0.213116 0.271607
vt 0.213116 0.271607
vt 0.183826 0.271607
vt 0.555443 0.244915
vt 0.529340 0.244915
vt 0.555443 0.270071
vt 0.529340 0.270071
vt 0.185419 0.244915
vt 0.185419 0.270071
vt 0.211523 0.270071
vt 0.211523 0.244915
vn 0.781122 -0.624378 0.000000
vn 0.781122 -0.624378 0.000000
vn 0.781122 -0.624378 0.000000
vn 0.781122 -0.624378 0.000000
vn -0.624379 -0.781122 0.000000
vn -0.624379 -0.781122 0.000000
vn -0.624379 -0.781122 0.000000
vn -0.624379 -0.781122 0.000000
vn -0.781122 0.624378 0.000000
vn -0.781122 0.624378 0.000000
vn -0.781122 0.624378 0.000000
vn -0.781122 0.624378 0.000000
vn 0.624378 0.781122 0.000000
vn 0.624378 0.781122 0.000000
vn 0.624378 0.781122 0.000000
vn 0.624378 0.781122 0.000000
vn 0.000000 0.000000 1.000000
vn 0.000000 0.000000 1.000000
vn 0.000000 0.000000 1.000000
vn 0.000000 0.000000 1.000000
vn 0.000000 0.000000 -1.000000
vn 0.000000 0.000000 -1.000000
vn 0.000000 0.000000 -1.000000
vn 0.000000 0.000000 -1.000000
vn -0.189443 0.981892 0.000000
vn -0.189443 0.981892 0.000000
vn -0.189443 0.981892 0.000000
vn -0.189443 0.981892 0.000000
vn 0.981892 0.189443 0.000000
vn 0.981892 0.189443 0.000000
vn 0.981892 0.189443 0.000000
vn 0.981892 0.189443 0.000000
vn 0.189443 -0.981892 0.000000
vn 0.189443 -0.981892 0.000000
vn 0.189443 -0.981892 0.000000
vn 0.189443 -0.981892 0.000000
vn -0.981892 -0.189442 0.000000
vn -0.981892 -0.189442 0.000000
vn -0.981892 -0.189442 0.000000
vn -0.981892 -0.189442 0.000000
vn 0.000000 0.000000 1.000000
vn 0.000000 0.000000 1.000000
vn 0.000000 0.000000 1.000000
vn 0.000000 0.000000 1.000000
vn 0.000000 0.000000 -1.000000
vn 0.000000 0.000000 -1.000000
vn 0.000000 0.000000 -1.000000
vn 0.000000 0.000000 -1.000000
vn 0.000000 -0.964631 -0.263604
vn 0.000000 -0.964631 -0.263604
vn 0.000000 -0.964631 -0.263604
vn 0.000000 -0.964631 -0.263604
vn 0.000000 -0.263606 0.964631
vn 0.000000 -0.263606 0.964631
vn 0.000000 -0.263606 0.964631
vn 0.000000 -0.263606 0.964631
vn 0.000000 0.964631 0.263604
vn 0.000000 0.964631 0.263604
vn 0.000000 0.964631 0.263604
vn 0.000000 0.964631 0.263604
vn 0.000000 0.263605 -0.964631
vn 0.000000 0.263605 -0.964631
vn 0.000000 0.263605 -0.964631
vn 0.000000 0.263605 -0.964631
vn 1.000000 0.000000 0.000000
vn 1.000000 0.000000 0.000000
vn 1.000000 0.000000 0.000000
vn 1.000000 0.000000 0.000000
vn -1.000000 0.000000 0.000000
vn -1.000000 0.000000 0.000000
vn -1.000000 0.000000 0.000000
vn -1.000000 0.000000 0.000000
vn 0.000000 0.809017 -0.587785
vn 0.000000 0.809017 -0.587785
vn 0.000000 0.809017 -0.587785
vn 0.000000 0.809017 -0.587785
vn 0.000000 -0.587785 -0.809017
vn 0.000000 -0.587785 -0.809017
vn 0.000000 -0.587785 -0.809017
vn 0.000000 -0.587785 -0.809017
vn 0.000000 -0.809017 0.587785
vn 0.000000 -0.809017 0.587785
vn 0.000000 -0.809017 0.587785
vn 0.000000 -0.809017 0.587785
vn 0.000000 0.587785 0.809017
vn 0.000000 0.587785 0.809017
vn 0.000000 0.587785 0.809017
vn 0.000000 0.587785 0.809017
vn 1.000000 0.000000 0.000000
vn 1.000000 0.000000 0.000000
vn 1.000000 0.000000 0.000000
vn 1.000000 0.000000 0.000000
vn -1.000000 0.000000 0.000000
vn -1.000000 0.000000 0.000000
vn -1.000000 0.000000 0.000000
vn -1.000000 0.000000 0.000000
vn 0.000000 0.000000 1.000000
vn 0.000000 0.000000 1.000000
vn 0.000000 0.000000 1.000000
vn 0.000000 0.000000 1.000000
vn 0.000000 1.000000 0.000000
vn 0.000000 1.000000 0.000000
vn 0.000000 1.000000 0.000000
vn 0.000000 1.000000 0.000000
vn 0.000000 0.000000 -1.000000
vn 0.000000 0.000000 -1.000000
vn 0.000000 0.000000 -1.000000
vn 0.000000 0.000000 -1.000000
vn 0.000000 -1.000000 0.000000
vn 0.000000 -1.000000 0.000000
vn 0.000000 -1.000000 0.000000
vn 0.000000 -1.000000 0.000000
vn 1.000000 0.000000 0.000000
vn 1.000000 0.000000 0.000000
vn 1.000000 0.000000 0.000000
vn 1.000000 0.000000 0.000000
vn -1.000000 0.000000 0.000000
vn -1.000000 0.000000 0.000000
vn -1.000000 0.000000 0.000000
vn -1.000000 0.000000 0.000000
vn 0.000000 1.000000 0.000001
vn 0.000000 1.000000 0.000001
vn 0.000000 1.000000 0.000001
vn 0.000000 1.000000 0.000001
vn 0.000000 1.000000 0.000000
vn 0.000000 1.000000 0.000000
vn 0.000000 1.000000 0.000000
vn 0.000000 1.000000 0.000000
vn 0.000000 1.000000 -0.000001
vn 0.000000 1.000000 -0.000001
vn 0.000000 1.000000 -0.000001
vn 0.000000 1.000000 -0.000001
vn 0.000000 1.000000 0.000000
vn 0.000000 1.000000 0.000000
vn 0.000000 1.000000 0.000000
vn 0.000000 1.000000 0.000000
vn 0.000000 0.000000 -1.000000
vn 0.000000 0.000000 -1.000000
vn 0.000000 0.000000 -1.000000
vn 0.000000 0.000000 -1.000000
vn -1.000000 0.000000 0.000000
vn -1.000000 0.000000 0.000000
vn -1.000000 0.000000 0.000000
vn -1.000000 0.000000 0.000000
vn 0.000000 0.000000 1.000000
vn 0.000000 0.000000 1.000000
vn 0.000000 0.000000 1.000000
vn 0.000000 0.000000 1.000000
vn 1.000000 0.000000 0.000000
vn 1.000000 0.000000 0.000000
vn 1.000000 0.000000 0.000000
vn 1.000000 0.000000 0.000000
s off
g Box02
f 1/1/1 2/2/2 4/3/3 3/4/4
f 3/4/5 4/3/6 6/5/7 5/6/8
f 5/6/9 6/5/10 8/7/11 7/8/12
f 7/8/13 8/7/14 2/2/15 1/1/16
f 2/2/17 8/7/18 6/5/19 4/3/20
f 7/8/21 1/1/22 3/4/23 5/6/24
f 9/9/25 10/10/26 12/11/27 11/12/28
f 11/12/29 12/11/30 14/13/31 13/14/32
f 13/14/33 14/13/34 16/15/35 15/16/36
f 15/16/37 16/15/38 10/10/39 9/9/40
f 10/10/41 16/15/42 14/13/43 12/11/44
f 15/16/45 9/9/46 11/12/47 13/14/48
f 17/17/49 18/18/50 20/19/51 19/20/52
f 19/20/53 20/19/54 22/21/55 21/22/56
f 21/22/57 22/21/58 24/23/59 23/24/60
f 23/24/61 24/23/62 18/18/63 17/17/64
f 18/18/65 24/23/66 22/21/67 20/19/68
f 23/24/69 17/17/70 19/20/71 21/22/72
f 25/25/73 26/26/74 28/27/75 27/28/76
f 27/28/77 28/27/78 30/29/79 29/30/80
f 29/30/81 30/29/82 32/31/83 31/32/84
f 31/32/85 32/31/86 26/26/87 25/25/88
f 26/26/89 32/31/90 30/29/91 28/27/92
f 31/32/93 25/25/94 27/28/95 29/30/96
f 33/33/97 34/34/98 36/35/99 35/36/100
f 45/37/101 46/38/102 47/39/103 48/40/104
f 37/41/105 38/42/106 40/43/107 39/44/108
f 39/44/109 40/43/110 34/34/111 33/33/112
f 34/34/113 40/43/114 38/42/115 36/35/116
f 39/44/117 33/33/118 35/36/119 37/41/120
f 35/36/121 36/35/122 42/52/123 41/49/124
f 36/35/125 38/42/126 43/51/127 42/52/128
f 38/42/129 37/41/130 44/50/131 43/51/132
f 37/41/133 35/36/134 41/49/135 44/50/136
f 41/46/137 42/45/138 46/38/139 45/37/140
f 42/45/141 43/47/142 47/39/143 46/38/144
f 43/47/145 44/48/146 48/40/147 47/39/148
f 44/48/149 41/46/150 45/37/151 48/40/152
