# This file uses centimeters as units for non-parametric coordinates.

g default
v 0.000000 -0.000080 0.156209
v 0.337965 0.000000 -0.012773
v 0.000000 0.326232 0.156363
v 0.337965 0.326312 -0.012620
v 0.000000 0.326312 -0.012620
v 0.000000 0.326392 -0.181602
v 0.000000 0.000080 -0.181756
v 0.000000 0.000000 -0.012773
v -0.341904 -0.000080 0.156209
v -0.003939 0.000000 -0.012773
v -0.341904 0.326232 0.156363
v -0.003939 0.326312 -0.012620
v -0.341904 0.326312 -0.012620
v -0.341904 0.326392 -0.181602
v -0.341904 0.000080 -0.181756
v -0.341904 0.000000 -0.012773
vt 0.785353 0.117783
vt 0.811579 0.117783
vt 0.807768 0.140198
vt 0.785353 0.133922
vt 0.785353 0.141991
vt 0.785353 0.150061
vt 0.801492 0.172252
vt 0.785353 0.166200
vt 0.785353 0.174269
vt 0.785353 0.182339
vt 0.769214 0.117783
vt 0.777284 0.117783
vt 0.777284 0.133922
vt 0.769214 0.133922
vt 0.785353 0.117783
vt 0.811579 0.117783
vt 0.807768 0.140198
vt 0.785353 0.133922
vt 0.785353 0.141991
vt 0.785353 0.150061
vt 0.801492 0.172252
vt 0.785353 0.166200
vt 0.785353 0.174269
vt 0.785353 0.182339
vt 0.769214 0.117783
vt 0.777284 0.117783
vt 0.777284 0.133922
vt 0.769214 0.133922
vn 0.447214 -0.000422 0.894427
vn 0.447214 -0.000422 0.894427
vn 0.447214 -0.000422 0.894427
vn 0.447214 -0.000422 0.894427
vn 0.000000 1.000000 0.000470
vn 0.000000 1.000000 0.000471
vn 0.000000 1.000000 0.000471
vn 0.000000 1.000000 0.000471
vn 0.000000 1.000000 0.000471
vn 0.000000 1.000000 0.000472
vn 0.447213 0.000422 -0.894427
vn 0.447214 0.000422 -0.894427
vn 0.447213 0.000422 -0.894427
vn 0.447213 0.000422 -0.894427
vn 0.000000 -1.000000 -0.000470
vn 0.000000 -1.000000 -0.000471
vn 0.000000 -1.000000 -0.000471
vn 0.000000 -1.000000 -0.000471
vn 0.000000 -1.000000 -0.000471
vn 0.000000 -1.000000 -0.000471
vn -1.000000 0.000000 0.000000
vn -1.000000 0.000000 0.000000
vn -1.000000 0.000000 0.000000
vn -1.000000 0.000000 0.000000
vn -1.000000 0.000000 0.000000
vn -1.000000 0.000000 0.000000
vn -1.000000 0.000000 0.000000
vn -1.000000 0.000000 0.000000
vn 0.447214 -0.000422 0.894427
vn 0.447214 -0.000422 0.894427
vn 0.447214 -0.000422 0.894427
vn 0.447214 -0.000422 0.894427
vn 0.000000 1.000000 0.000470
vn 0.000000 1.000000 0.000470
vn 0.000000 1.000000 0.000470
vn 0.000000 1.000000 0.000470
vn 0.000000 1.000000 0.000470
vn 0.000000 1.000000 0.000470
vn 0.447214 0.000422 -0.894427
vn 0.447214 0.000422 -0.894427
vn 0.447214 0.000422 -0.894427
vn 0.447214 0.000422 -0.894427
vn 0.000000 -1.000000 -0.000471
vn 0.000000 -1.000000 -0.000471
vn 0.000000 -1.000000 -0.000471
vn 0.000000 -1.000000 -0.000471
vn 0.000000 -1.000000 -0.000471
vn 0.000000 -1.000000 -0.000470
vn -1.000000 0.000000 0.000000
vn -1.000000 0.000000 0.000000
vn -1.000000 0.000000 0.000000
vn -1.000000 0.000000 0.000000
vn -1.000000 0.000000 0.000000
vn -1.000000 0.000000 0.000000
vn -1.000000 0.000000 0.000000
vn -1.000000 0.000000 0.000000
s off
g FastForwardSymbol
f 1/1/1 2/2/2 4/3/3 3/4/4
f 3/4/5 4/3/6 5/5/7
f 5/5/8 4/3/9 6/6/10
f 6/6/11 4/3/12 2/7/13 7/8/14
f 7/8/15 2/7/16 8/9/17
f 8/9/18 2/7/19 1/10/20
f 7/11/21 8/12/22 5/13/23 6/14/24
f 8/12/25 1/1/26 3/4/27 5/13/28
f 9/15/29 10/16/30 12/17/31 11/18/32
f 11/18/33 12/17/34 13/19/35
f 13/19/36 12/17/37 14/20/38
f 14/20/39 12/17/40 10/21/41 15/22/42
f 15/22/43 10/21/44 16/23/45
f 16/23/46 10/21/47 9/24/48
f 15/25/49 16/26/50 13/27/51 14/28/52
f 16/26/53 9/15/54 11/18/55 13/27/56
