# This file uses centimeters as units for non-parametric coordinates.

g default
v 0.194000 -0.055846 0.218739
v -0.194000 -0.055846 0.218739
v -0.194000 -0.005469 0.256266
v 0.194000 -0.005469 0.256266
v -0.194000 -0.060658 0.209154
v 0.194000 -0.060658 0.209154
v 0.194000 -0.060658 0.145687
v -0.194000 -0.060658 0.145687
v -0.200000 -0.006658 0.247899
v -0.200000 -0.054658 0.212142
v -0.200000 -0.054658 0.145743
v -0.200000 -0.006658 0.146195
v 0.194000 -0.000658 0.265851
v -0.194000 -0.000658 0.265851
v -0.194000 -0.000658 0.423851
v 0.194000 -0.000658 0.423851
v 0.200000 -0.054658 0.212142
v 0.200000 -0.006658 0.247899
v 0.200000 -0.006658 0.146195
v 0.200000 -0.054658 0.145743
v -0.194000 -0.060601 0.133687
v 0.194000 -0.060601 0.133687
v 0.194000 -0.059399 0.005693
v -0.194000 -0.059399 0.005693
v 0.200000 0.005342 0.146251
v 0.200000 0.005342 0.253851
v 0.200000 0.053342 0.253851
v 0.200000 0.053342 0.146251
v 0.200000 -0.054601 0.133743
v 0.200000 -0.006629 0.134194
v 0.200000 -0.006028 0.006194
v 0.200000 -0.053399 0.005749
v 0.200000 0.053342 0.265851
v 0.200000 0.005342 0.265851
v 0.200000 0.005342 0.423851
v 0.200000 0.053342 0.423851
v 0.194000 0.059342 0.154736
v 0.194000 0.059342 0.253851
v 0.166000 0.059342 0.253851
v 0.166000 0.059342 0.182736
v 0.200000 0.005371 0.134251
v 0.200000 0.053342 0.134251
v 0.200000 0.053342 0.006251
v 0.200000 0.005972 0.006251
v -0.200000 -0.006629 0.134194
v -0.200000 -0.054601 0.133743
v -0.200000 -0.053399 0.005749
v -0.200000 -0.006028 0.006194
v -0.200000 0.005342 0.253851
v -0.200000 0.005342 0.146251
v -0.200000 0.053342 0.146251
v -0.200000 0.053342 0.253851
v -0.200000 0.053342 0.134251
v -0.200000 0.005371 0.134251
v -0.200000 0.005972 0.006251
v -0.200000 0.053342 0.006251
v -0.194000 0.059342 0.253851
v -0.194000 0.059342 0.154736
v -0.166000 0.059342 0.182736
v -0.166000 0.059342 0.253851
v -0.200000 0.005342 0.265851
v -0.200000 0.053342 0.265851
v -0.200000 0.053342 0.423851
v -0.200000 0.005342 0.423851
v 0.187945 -0.004587 0.434385
v -0.187945 -0.004587 0.434385
v -0.182014 -0.009728 0.440316
v 0.182014 -0.009728 0.440316
v -0.194000 0.059342 0.423851
v -0.194000 0.059342 0.265851
v -0.166000 0.059342 0.265851
v -0.166000 0.059342 0.423851
v -0.200000 0.005342 0.435851
v -0.200000 0.053342 0.435851
v -0.200000 0.053342 0.483851
v -0.200000 0.005342 0.483851
v 0.200000 0.053342 0.435851
v 0.200000 0.005342 0.435851
v 0.200000 0.005342 0.483851
v 0.200000 0.053342 0.483851
v 0.194000 0.059342 0.265851
v 0.194000 0.059342 0.423851
v 0.166000 0.059342 0.423851
v 0.166000 0.059342 0.265851
v 0.194000 0.005342 0.489851
v -0.194000 0.005342 0.489851
v -0.194000 0.053342 0.489851
v 0.194000 0.053342 0.489851
v -0.187945 -0.004587 0.485317
v 0.187945 -0.004587 0.485317
v 0.182014 -0.009728 0.479385
v -0.182014 -0.009728 0.479385
v 0.185515 0.059342 0.483851
v -0.185515 0.059342 0.483851
v -0.157515 0.059342 0.455851
v 0.157515 0.059342 0.455851
v -0.194000 0.059342 0.475365
v -0.194000 0.059342 0.435851
v -0.166000 0.059342 0.435851
v -0.166000 0.059342 0.447365
v -0.195466 -0.004587 0.441905
v -0.195466 -0.004587 0.477796
v -0.189534 -0.009728 0.471864
v -0.189534 -0.009728 0.447837
v 0.195466 -0.004587 0.477796
v 0.195466 -0.004587 0.441905
v 0.189534 -0.009728 0.447837
v 0.189534 -0.009728 0.471864
v 0.194000 0.059342 0.435851
v 0.194000 0.059342 0.475365
v 0.166000 0.059342 0.447365
v 0.166000 0.059342 0.435851
v 0.179000 -0.013658 0.450851
v -0.179000 -0.013658 0.450851
v -0.179000 -0.013658 0.468851
v 0.179000 -0.013658 0.468851
v -0.185515 0.059342 0.146251
v 0.185515 0.059342 0.146251
v 0.157515 0.059342 0.174251
v -0.157515 0.059342 0.174251
v 0.194000 0.059342 0.134251
v -0.194000 0.059342 0.134251
v -0.194000 0.059342 0.006251
v 0.194000 0.059342 0.006251
v -0.149810 0.054350 0.183579
v 0.149810 0.054350 0.183579
v 0.136467 0.034335 0.196922
v -0.136467 0.034335 0.196922
v 0.156672 0.054350 0.190440
v 0.156672 0.054350 0.253851
v 0.143328 0.034335 0.253851
v 0.143328 0.034335 0.203784
v 0.156672 0.054350 0.265851
v 0.156672 0.054350 0.423851
v 0.143328 0.034335 0.423851
v 0.143328 0.034335 0.265851
v 0.156672 0.054350 0.435851
v 0.156672 0.054350 0.439661
v 0.141614 0.031764 0.424604
v 0.140000 0.029342 0.435851
v 0.149810 0.054350 0.446522
v -0.149810 0.054350 0.446522
v -0.136467 0.034335 0.433179
v 0.136467 0.034335 0.433179
v -0.156672 0.054350 0.439661
v -0.156672 0.054350 0.435851
v -0.140000 0.029342 0.435851
v -0.141614 0.031764 0.424604
v -0.156672 0.054350 0.423851
v -0.156672 0.054350 0.265851
v -0.143328 0.034335 0.265851
v -0.143328 0.034335 0.423851
v -0.156672 0.054350 0.253851
v -0.156672 0.054350 0.190440
v -0.143328 0.034335 0.203784
v -0.143328 0.034335 0.253851
v -0.134000 0.029342 0.206251
v 0.134000 0.029342 0.206251
v 0.134000 0.029342 0.253851
v -0.134000 0.029342 0.253851
v -0.134000 0.029342 0.265851
v 0.134000 0.029342 0.265851
v 0.134000 0.029342 0.423851
v -0.134000 0.029342 0.423851
v -0.140000 0.029342 0.429851
v 0.140000 0.029342 0.429851
v 0.140000 0.029342 0.429851
v -0.140000 0.029342 0.429851
v -0.194000 -0.053342 -0.000251
v 0.194000 -0.053342 -0.000251
v 0.194000 -0.006000 0.000194
v -0.194000 -0.006000 0.000194
v -0.194000 0.006000 0.000251
v 0.194000 0.006000 0.000251
v 0.194000 0.053342 0.000251
v -0.194000 0.053342 0.000251
vn 0.015562 -0.650038 0.759742
vn -0.015562 -0.650038 0.759742
vn -0.016076 -0.648586 0.760972
vn 0.016076 -0.648586 0.760972
vn 0.016829 -0.997750 0.064896
vn -0.016829 -0.997750 0.064896
vn -0.015468 -0.999880 -0.000747
vn 0.015468 -0.999880 -0.000747
vn 1.000000 -0.000000 0.000000
vn 0.992373 -0.077894 0.095548
vn 0.996098 -0.079404 0.038518
vn 0.995823 -0.091301 -0.000066
vn 0.995549 0.094243 0.000000
vn 0.994262 0.106976 0.000000
vn 0.999831 -0.015683 0.009575
vn 1.000000 -0.000000 0.000000
vn -0.992373 -0.077894 0.095548
vn -1.000000 -0.000000 0.000000
vn -0.995823 -0.091301 -0.000066
vn -0.996098 -0.079404 0.038518
vn -0.994262 0.106976 0.000000
vn -0.995549 0.094243 0.000000
vn -1.000000 -0.000000 0.000000
vn -0.999831 -0.015683 0.009575
vn 0.017239 -0.999716 -0.016426
vn -0.017239 -0.999716 -0.016426
vn -0.016898 -0.999432 0.029160
vn 0.016898 -0.999432 0.029160
vn -0.993081 -0.117381 -0.003329
vn -0.993884 0.110431 0.000000
vn -0.993884 0.110431 0.000000
vn -0.993834 -0.110750 0.005420
vn 0.993884 0.110431 0.000000
vn 0.993081 -0.117381 -0.003329
vn 0.993834 -0.110750 0.005420
vn 0.993884 0.110431 0.000000
vn 0.016660 0.062228 0.997923
vn -0.016660 0.062228 0.997923
vn -0.016618 -0.057845 0.998187
vn 0.016618 -0.057845 0.998187
vn -0.990312 -0.068727 0.120656
vn -0.988914 0.087799 0.119750
vn -0.994628 0.103513 0.000000
vn -0.995375 -0.095279 -0.012231
vn 0.988914 0.087799 0.119750
vn 0.990312 -0.068727 0.120656
vn 0.995375 -0.095279 -0.012231
vn 0.994628 0.103513 0.000000
vn 0.009321 -0.989041 0.147345
vn -0.009321 -0.989041 0.147345
vn -0.009321 -0.989041 -0.147345
vn 0.009321 -0.989041 -0.147345
vn 0.006533 -0.852663 -0.522421
vn -0.006533 -0.852663 -0.522421
vn -0.024909 -0.907113 -0.420149
vn 0.024909 -0.907113 -0.420149
vn -0.512105 -0.855659 -0.074811
vn -0.512105 -0.855659 0.074811
vn -0.817926 -0.564250 0.112331
vn -0.807707 -0.585597 -0.068453
vn -0.006533 -0.852663 0.522421
vn 0.006533 -0.852663 0.522421
vn 0.014043 -0.514037 0.857653
vn -0.014043 -0.514037 0.857653
vn 0.512105 -0.855659 0.074811
vn 0.512105 -0.855659 -0.074811
vn 0.807707 -0.585597 -0.068453
vn 0.817926 -0.564250 0.112331
vn 0.002159 0.998369 0.057051
vn -0.002159 0.998369 0.057051
vn 0.009136 0.999958 0.000000
vn -0.009136 0.999958 0.000000
vn -0.052113 0.998610 0.007938
vn -0.113670 0.993519 0.000000
vn 0.198842 0.980032 0.000000
vn 0.345763 0.938322 -0.000000
vn -0.132560 0.991175 0.000000
vn -0.132560 0.991175 0.000000
vn 0.173785 0.984784 0.000000
vn 0.173785 0.984784 0.000000
vn -0.079308 0.996850 0.000000
vn -0.034467 0.999183 -0.021094
vn 0.311422 0.949850 0.028316
vn 0.234802 0.972043 0.000000
vn -0.002159 0.998369 -0.057051
vn 0.002159 0.998369 -0.057051
vn -0.004171 0.930655 0.365875
vn 0.004171 0.930655 0.365875
vn 0.034467 0.999183 -0.021094
vn 0.079308 0.996850 0.000000
vn -0.234802 0.972043 0.000000
vn -0.311422 0.949850 0.028316
vn 0.132560 0.991175 0.000000
vn 0.132560 0.991175 0.000000
vn -0.173785 0.984784 0.000000
vn -0.173785 0.984784 0.000000
vn 0.113670 0.993519 0.000000
vn 0.052113 0.998610 0.007938
vn -0.345763 0.938322 -0.000000
vn -0.198842 0.980032 0.000000
vn 0.018358 0.999832 0.000000
vn -0.018358 0.999832 0.000000
vn -0.017789 0.995250 0.095709
vn 0.017789 0.995250 0.095709
vn 0.017401 0.999849 0.000185
vn -0.017401 0.999849 0.000185
vn -0.017999 0.999838 0.000000
vn 0.017999 0.999838 0.000000
vn 0.018215 0.545655 -0.837812
vn -0.018215 0.545655 -0.837812
vn -0.051036 0.998371 0.025517
vn 0.051035 0.998371 0.025517
vn 0.012911 0.641058 0.767384
vn -0.012911 0.641058 0.767384
vn -0.019110 0.744393 0.667469
vn 0.019110 0.744393 0.667469
vn -0.756217 0.651493 0.060764
vn -0.749229 0.662311 0.000000
vn -0.730404 0.683016 0.000000
vn -0.635541 0.767942 0.079702
vn -0.740861 0.671659 0.000000
vn -0.747355 0.664422 0.001921
vn -0.741480 0.670975 0.000000
vn -0.740861 0.671659 0.000000
vn -0.814072 0.579937 0.030967
vn -0.247789 0.602460 -0.758711
vn -0.374190 0.836091 -0.401166
vn -0.671843 0.740694 -0.000001
vn -0.015943 0.561439 -0.827365
vn 0.015943 0.561439 -0.827365
vn 0.020027 0.744471 -0.667355
vn -0.020027 0.744471 -0.667355
vn 0.247789 0.602460 -0.758711
vn 0.814072 0.579937 0.030967
vn 0.671843 0.740694 -0.000001
vn 0.374190 0.836091 -0.401166
vn 0.747355 0.664422 0.001921
vn 0.740861 0.671659 0.000000
vn 0.740861 0.671659 0.000000
vn 0.741480 0.670975 0.000000
vn 0.749229 0.662311 0.000000
vn 0.756217 0.651493 0.060764
vn 0.635541 0.767942 0.079702
vn 0.730404 0.683016 0.000000
vn -0.015256 0.008445 -0.999848
vn 0.015256 0.008445 -0.999848
vn 0.014018 -0.101421 -0.994745
vn -0.014018 -0.101421 -0.994745
vn -0.014018 0.110769 -0.993747
vn 0.014018 0.110769 -0.993747
vn 0.015256 0.000950 -0.999883
vn -0.015256 0.000950 -0.999883
vn -0.014764 -0.998449 -0.053677
vn 0.014764 -0.998449 -0.053677
vn 0.015224 -0.999844 -0.008992
vn -0.015224 -0.999844 -0.008992
vn 0.993291 -0.107720 -0.042062
vn 0.999017 0.000374 -0.044332
vn 1.000000 0.000000 0.000000
vn 0.993811 -0.111077 -0.000999
vn 0.999017 0.000042 -0.044333
vn 0.993291 0.108116 -0.041048
vn 0.992124 0.125260 0.000000
vn 1.000000 -0.000000 0.000000
vn 0.014764 0.998909 -0.044293
vn -0.014764 0.998909 -0.044293
vn -0.016682 0.999861 0.000000
vn 0.016682 0.999861 0.000000
vn -0.993291 0.108116 -0.041048
vn -0.999017 0.000042 -0.044333
vn -1.000000 -0.000000 0.000000
vn -0.992124 0.125260 0.000000
vn -0.999017 0.000374 -0.044332
vn -0.993291 -0.107720 -0.042062
vn -0.993811 -0.111077 -0.000999
vn -1.000000 0.000000 0.000000
s 1
g Button
f 4//1 3//2 2//3 1//4
f 6//5 5//6 8//7 7//8
f 19//9 18//10 17//11 20//12
f 28//13 27//14 26//15 25//16
f 9//17 12//18 11//19 10//20
f 52//21 51//22 50//23 49//24
f 16//25 15//26 14//27 13//28
f 64//29 63//30 62//31 61//32
f 36//33 35//34 34//35 33//36
f 88//37 87//38 86//39 85//40
f 76//41 75//42 74//43 73//44
f 80//45 79//46 78//47 77//48
f 116//49 115//50 114//51 113//52
f 68//53 67//54 66//55 65//56
f 104//57 103//58 102//59 101//60
f 92//61 91//62 90//63 89//64
f 108//65 107//66 106//67 105//68
f 120//69 119//70 118//71 117//72
f 40//73 39//74 38//75 37//76
f 84//77 83//78 82//79 81//80
f 112//81 111//82 110//83 109//84
f 96//85 95//86 94//87 93//88
f 100//89 99//90 98//91 97//92
f 72//93 71//94 70//95 69//96
f 60//97 59//98 58//99 57//100
f 160//101 159//102 158//103 157//104
f 164//105 163//106 162//107 161//108
f 168//109 167//110 166//111 165//112
f 128//113 127//114 126//115 125//116
f 132//117 131//118 130//119 129//120
f 136//121 135//122 134//123 133//124
f 140//125 139//126 138//127 137//128
f 144//129 143//130 142//131 141//132
f 148//133 147//134 146//135 145//136
f 152//137 151//138 150//139 149//140
f 156//141 155//142 154//143 153//144
f 172//145 171//146 170//147 169//148
f 176//149 175//150 174//151 173//152
f 24//153 23//154 22//155 21//156
f 32//157 31//158 30//159 29//160
f 44//161 43//162 42//163 41//164
f 124//165 123//166 122//167 121//168
f 56//169 55//170 54//171 53//172
f 48//173 47//174 46//175 45//176
f 9//17 10//20 2//3 3//2
f 13//28 14//27 3//2 4//1
f 17//11 18//10 4//1 1//4
f 5//6 6//5 1//4 2//3
f 20//12 17//11 6//5 7//8
f 21//156 22//155 7//8 8//7
f 10//20 11//19 8//7 5//6
f 45//176 46//175 11//19 12//18
f 49//24 50//23 12//18 9//17
f 64//29 61//32 14//27 15//26
f 65//56 66//55 15//26 16//25
f 34//35 35//34 16//25 13//28
f 25//16 26//15 18//10 19//9
f 29//160 30//159 19//9 20//12
f 32//157 29//160 22//155 23//154
f 169//148 170//147 23//154 24//153
f 46//175 47//174 24//153 21//156
f 33//36 34//35 26//15 27//14
f 37//76 38//75 27//14 28//13
f 41//164 42//163 28//13 25//16
f 44//161 41//164 30//159 31//158
f 170//147 171//146 31//158 32//157
f 77//48 78//47 35//34 36//33
f 81//80 82//79 36//33 33//36
f 84//77 81//80 38//75 39//74
f 129//120 130//119 39//74 40//73
f 118//71 119//70 40//73 37//76
f 124//165 121//168 42//163 43//162
f 174//151 175//150 43//162 44//161
f 172//145 169//148 47//174 48//173
f 54//171 55//170 48//173 45//176
f 53//172 54//171 50//23 51//22
f 57//100 58//99 51//22 52//21
f 61//32 62//31 52//21 49//24
f 176//149 173//152 55//170 56//169
f 122//167 123//166 56//169 53//172
f 120//69 117//72 58//99 59//98
f 153//144 154//143 59//98 60//97
f 70//95 71//94 60//97 57//100
f 69//96 70//95 62//31 63//30
f 73//44 74//43 63//30 64//29
f 104//57 101//60 66//55 67//54
f 113//52 114//51 67//54 68//53
f 106//67 107//66 68//53 65//56
f 149//140 150//139 71//94 72//93
f 98//91 99//90 72//93 69//96
f 97//92 98//91 74//43 75//42
f 86//39 87//38 75//42 76//41
f 101//60 102//59 76//41 73//44
f 105//68 106//67 78//47 79//46
f 88//37 85//40 79//46 80//45
f 109//84 110//83 80//45 77//48
f 112//81 109//84 82//79 83//78
f 133//124 134//123 83//78 84//77
f 93//88 94//87 87//38 88//37
f 89//64 90//63 85//40 86//39
f 108//65 105//68 90//63 91//62
f 115//50 116//49 91//62 92//61
f 102//59 103//58 92//61 89//64
f 100//89 97//92 94//87 95//86
f 141//132 142//131 95//86 96//85
f 110//83 111//82 96//85 93//88
f 145//136 146//135 99//90 100//89
f 114//51 115//50 103//58 104//57
f 116//49 113//52 107//66 108//65
f 137//128 138//127 111//82 112//81
f 125//116 126//115 119//70 120//69
f 121//168 122//167 117//72 118//71
f 175//150 176//149 123//166 124//165
f 132//117 129//120 126//115 127//114
f 157//104 158//103 127//114 128//113
f 154//143 155//142 128//113 125//116
f 136//121 133//124 130//119 131//118
f 158//103 159//102 131//118 132//117
f 140//125 137//128 134//123 135//122
f 162//107 163//106 135//122 136//121
f 144//129 141//132 138//127 139//126
f 166//111 167//110 139//126 140//125
f 148//133 145//136 142//131 143//130
f 167//110 168//109 143//130 144//129
f 152//137 149//140 146//135 147//134
f 168//109 165//112 147//134 148//133
f 156//141 153//144 150//139 151//138
f 164//105 161//108 151//138 152//137
f 160//101 157//104 155//142 156//141
f 161//108 162//107 159//102 160//101
f 165//112 166//111 163//106 164//105
f 173//152 174//151 171//146 172//145
f 6//5 17//11 1//4
f 5//6 2//3 10//20
f 14//27 61//32 49//24 9//17 3//2
f 18//10 26//15 34//35 13//28 4//1
f 22//155 29//160 20//12 7//8
f 11//19 46//175 21//156 8//7
f 30//159 41//164 25//16 19//9
f 38//75 81//80 33//36 27//14
f 42//163 121//168 118//71 37//76 28//13
f 50//23 54//171 45//176 12//18
f 58//99 117//72 122//167 53//172 51//22
f 62//31 70//95 57//100 52//21
f 66//55 101//60 73//44 64//29 15//26
f 35//34 78//47 106//67 65//56 16//25
f 74//43 98//91 69//96 63//30
f 82//79 109//84 77//48 36//33
f 85//40 90//63 105//68 79//46
f 102//59 89//64 86//39 76//41
f 87//38 94//87 97//92 75//42
f 110//83 93//88 88//37 80//45
f 107//66 113//52 68//53
f 114//51 104//57 67//54
f 103//58 115//50 92//61
f 116//49 108//65 91//62
f 119//70 126//115 129//120 40//73
f 154//143 125//116 120//69 59//98
f 130//119 133//124 84//77 39//74
f 134//123 137//128 112//81 83//78
f 111//82 138//127 141//132 96//85
f 142//131 145//136 100//89 95//86
f 99//90 146//135 149//140 72//93
f 71//94 150//139 153//144 60//97
f 155//142 157//104 128//113
f 158//103 132//117 127//114
f 159//102 162//107 136//121 131//118
f 161//108 160//101 156//141 151//138
f 163//106 166//111 140//125 135//122
f 165//112 164//105 152//137 147//134
f 167//110 144//129 139//126
f 168//109 148//133 143//130
f 47//174 169//148 24//153
f 170//147 32//157 23//154
f 171//146 174//151 44//161 31//158
f 55//170 173//152 172//145 48//173
f 175//150 124//165 43//162
f 123//166 176//149 56//169
