# This file uses centimeters as units for non-parametric coordinates.

g default
v 0.373000 0.028750 0.148000
v -0.377000 0.028750 0.148000
v 0.373000 0.051250 0.148000
v -0.377000 0.051250 0.148000
v -0.377000 0.028750 -0.152000
v 0.373000 0.028750 -0.152000
v -0.377000 0.051250 -0.152000
v 0.373000 0.051250 -0.152000
v 0.373000 0.228750 0.148000
v -0.377000 0.228750 0.148000
v 0.373000 0.251250 0.148000
v -0.377000 0.251250 0.148000
v -0.377000 0.228750 -0.152000
v 0.373000 0.228750 -0.152000
v -0.377000 0.251250 -0.152000
v 0.373000 0.251250 -0.152000
v 0.373000 0.428750 0.148000
v -0.377000 0.428750 0.148000
v 0.373000 0.451250 0.148000
v -0.377000 0.451250 0.148000
v -0.377000 0.428750 -0.152000
v 0.373000 0.428750 -0.152000
v -0.377000 0.451250 -0.152000
v 0.373000 0.451250 -0.152000
v -0.335000 0.480000 -0.120000
v -0.336340 0.480000 -0.125000
v -0.340000 0.480000 -0.128660
v -0.345000 0.480000 -0.130000
v -0.350000 0.480000 -0.128660
v -0.353660 0.480000 -0.125000
v -0.355000 0.480000 -0.120000
v -0.353660 0.480000 -0.115000
v -0.350000 0.480000 -0.111340
v -0.345000 0.480000 -0.110000
v -0.340000 0.480000 -0.111340
v -0.336340 0.480000 -0.115000
v -0.335000 0.000000 -0.120000
v -0.336340 0.000000 -0.125000
v -0.340000 0.000000 -0.128660
v -0.345000 0.000000 -0.130000
v -0.350000 0.000000 -0.128660
v -0.353660 0.000000 -0.125000
v -0.355000 0.000000 -0.120000
v -0.353660 0.000000 -0.115000
v -0.350000 0.000000 -0.111340
v -0.345000 0.000000 -0.110000
v -0.340000 0.000000 -0.111340
v -0.336340 0.000000 -0.115000
v -0.335000 0.480000 0.120000
v -0.336340 0.480000 0.115000
v -0.340000 0.480000 0.111340
v -0.345000 0.480000 0.110000
v -0.350000 0.480000 0.111340
v -0.353660 0.480000 0.115000
v -0.355000 0.480000 0.120000
v -0.353660 0.480000 0.125000
v -0.350000 0.480000 0.128660
v -0.345000 0.480000 0.130000
v -0.340000 0.480000 0.128660
v -0.336340 0.480000 0.125000
v -0.335000 0.000000 0.120000
v -0.336340 0.000000 0.115000
v -0.340000 0.000000 0.111340
v -0.345000 0.000000 0.110000
v -0.350000 0.000000 0.111340
v -0.353660 0.000000 0.115000
v -0.355000 0.000000 0.120000
v -0.353660 0.000000 0.125000
v -0.350000 0.000000 0.128660
v -0.345000 0.000000 0.130000
v -0.340000 0.000000 0.128660
v -0.336340 0.000000 0.125000
v 0.355000 0.480000 -0.120000
v 0.353660 0.480000 -0.125000
v 0.350000 0.480000 -0.128660
v 0.345000 0.480000 -0.130000
v 0.340000 0.480000 -0.128660
v 0.336340 0.480000 -0.125000
v 0.335000 0.480000 -0.120000
v 0.336340 0.480000 -0.115000
v 0.340000 0.480000 -0.111340
v 0.345000 0.480000 -0.110000
v 0.350000 0.480000 -0.111340
v 0.353660 0.480000 -0.115000
v 0.355000 0.000000 -0.120000
v 0.353660 0.000000 -0.125000
v 0.350000 0.000000 -0.128660
v 0.345000 0.000000 -0.130000
v 0.340000 0.000000 -0.128660
v 0.336340 0.000000 -0.125000
v 0.335000 0.000000 -0.120000
v 0.336340 0.000000 -0.115000
v 0.340000 0.000000 -0.111340
v 0.345000 0.000000 -0.110000
v 0.350000 0.000000 -0.111340
v 0.353660 0.000000 -0.115000
v 0.355000 0.480000 0.120000
v 0.353660 0.480000 0.115000
v 0.350000 0.480000 0.111340
v 0.345000 0.480000 0.110000
v 0.340000 0.480000 0.111340
v 0.336340 0.480000 0.115000
v 0.335000 0.480000 0.120000
v 0.336340 0.480000 0.125000
v 0.340000 0.480000 0.128660
v 0.345000 0.480000 0.130000
v 0.350000 0.480000 0.128660
v 0.353660 0.480000 0.125000
v 0.355000 0.000000 0.120000
v 0.353660 0.000000 0.115000
v 0.350000 0.000000 0.111340
v 0.345000 0.000000 0.110000
v 0.340000 0.000000 0.111340
v 0.336340 0.000000 0.115000
v 0.335000 0.000000 0.120000
v 0.336340 0.000000 0.125000
v 0.340000 0.000000 0.128660
v 0.345000 0.000000 0.130000
v 0.350000 0.000000 0.128660
v 0.353660 0.000000 0.125000
vt 0.844168 0.017451
vt 0.772711 0.017451
vt 0.772711 0.017451
vt 0.844168 0.017451
vt 0.772711 0.088908
vt 0.844168 0.088908
vt 0.844168 0.088908
vt 0.772711 0.088908
vt 0.844168 0.017451
vt 0.772711 0.017451
vt 0.772711 0.017451
vt 0.844168 0.017451
vt 0.772711 0.088908
vt 0.844168 0.088908
vt 0.844168 0.088908
vt 0.772711 0.088908
vt 0.844168 0.017451
vt 0.772711 0.017451
vt 0.772711 0.017451
vt 0.844168 0.017451
vt 0.772711 0.088908
vt 0.844168 0.088908
vt 0.844168 0.088908
vt 0.772711 0.088908
vt 0.531629 0.081286
vt 0.531501 0.082477
vt 0.531152 0.083349
vt 0.530676 0.083668
vt 0.530199 0.083349
vt 0.529851 0.082477
vt 0.529723 0.081286
vt 0.529851 0.080095
vt 0.530199 0.079223
vt 0.530676 0.078904
vt 0.531152 0.079223
vt 0.531501 0.080095
vt 0.531501 0.080095
vt 0.531152 0.079223
vt 0.530676 0.078904
vt 0.530199 0.079223
vt 0.529851 0.080095
vt 0.529723 0.081286
vt 0.529851 0.082477
vt 0.530199 0.083349
vt 0.530676 0.083668
vt 0.531152 0.083349
vt 0.531501 0.082477
vt 0.531629 0.081286
vt 0.531629 0.024121
vt 0.531501 0.025311
vt 0.531152 0.026183
vt 0.530676 0.026502
vt 0.530199 0.026183
vt 0.529851 0.025311
vt 0.529723 0.024121
vt 0.529851 0.022930
vt 0.530199 0.022058
vt 0.530676 0.021739
vt 0.531152 0.022058
vt 0.531501 0.022930
vt 0.531501 0.022930
vt 0.531152 0.022058
vt 0.530676 0.021739
vt 0.530199 0.022058
vt 0.529851 0.022930
vt 0.529723 0.024121
vt 0.529851 0.025311
vt 0.530199 0.026183
vt 0.530676 0.026502
vt 0.531152 0.026183
vt 0.531501 0.025311
vt 0.531629 0.024121
vt 0.597368 0.081286
vt 0.597241 0.082477
vt 0.596892 0.083349
vt 0.596416 0.083668
vt 0.595939 0.083349
vt 0.595591 0.082477
vt 0.595463 0.081286
vt 0.595591 0.080095
vt 0.595939 0.079223
vt 0.596416 0.078904
vt 0.596892 0.079223
vt 0.597241 0.080095
vt 0.597241 0.080095
vt 0.596892 0.079223
vt 0.596416 0.078904
vt 0.595939 0.079223
vt 0.595591 0.080095
vt 0.595463 0.081286
vt 0.595591 0.082477
vt 0.595939 0.083349
vt 0.596416 0.083668
vt 0.596892 0.083349
vt 0.597241 0.082477
vt 0.597368 0.081286
vt 0.597368 0.024121
vt 0.597241 0.025311
vt 0.596892 0.026183
vt 0.596416 0.026502
vt 0.595939 0.026183
vt 0.595591 0.025311
vt 0.595463 0.024121
vt 0.595591 0.022930
vt 0.595939 0.022058
vt 0.596416 0.021739
vt 0.596892 0.022058
vt 0.597241 0.022930
vt 0.597241 0.022930
vt 0.596892 0.022058
vt 0.596416 0.021739
vt 0.595939 0.022058
vt 0.595591 0.022930
vt 0.595463 0.024121
vt 0.595591 0.025311
vt 0.595939 0.026183
vt 0.596416 0.026502
vt 0.596892 0.026183
vt 0.597241 0.025311
vt 0.597368 0.024121
vn 0.000000 0.000000 1.000000
vn 0.000000 0.000000 1.000000
vn 0.000000 0.000000 1.000000
vn 0.000000 0.000000 1.000000
vn 0.000000 0.000000 -1.000000
vn 0.000000 0.000000 -1.000000
vn 0.000000 0.000000 -1.000000
vn 0.000000 0.000000 -1.000000
vn 0.000000 1.000000 0.000000
vn 0.000000 1.000000 0.000000
vn 0.000000 1.000000 0.000000
vn 0.000000 1.000000 0.000000
vn 0.000000 -1.000000 0.000000
vn 0.000000 -1.000000 0.000000
vn 0.000000 -1.000000 0.000000
vn 0.000000 -1.000000 0.000000
vn 1.000000 0.000000 0.000000
vn 1.000000 0.000000 0.000000
vn 1.000000 0.000000 0.000000
vn 1.000000 0.000000 0.000000
vn -1.000000 0.000000 0.000000
vn -1.000000 0.000000 0.000000
vn -1.000000 0.000000 0.000000
vn -1.000000 0.000000 0.000000
vn 0.000000 0.000000 1.000000
vn 0.000000 0.000000 1.000000
vn 0.000000 0.000000 1.000000
vn 0.000000 0.000000 1.000000
vn 0.000000 0.000000 -1.000000
vn 0.000000 0.000000 -1.000000
vn 0.000000 0.000000 -1.000000
vn 0.000000 0.000000 -1.000000
vn 0.000000 1.000000 0.000000
vn 0.000000 1.000000 0.000000
vn 0.000000 1.000000 0.000000
vn 0.000000 1.000000 0.000000
vn 0.000000 -1.000000 0.000000
vn 0.000000 -1.000000 0.000000
vn 0.000000 -1.000000 0.000000
vn 0.000000 -1.000000 0.000000
vn 1.000000 0.000000 0.000000
vn 1.000000 0.000000 0.000000
vn 1.000000 0.000000 0.000000
vn 1.000000 0.000000 0.000000
vn -1.000000 0.000000 0.000000
vn -1.000000 0.000000 0.000000
vn -1.000000 0.000000 0.000000
vn -1.000000 0.000000 0.000000
vn 0.000000 0.000000 1.000000
vn 0.000000 0.000000 1.000000
vn 0.000000 0.000000 1.000000
vn 0.000000 0.000000 1.000000
vn 0.000000 0.000000 -1.000000
vn 0.000000 0.000000 -1.000000
vn 0.000000 0.000000 -1.000000
vn 0.000000 0.000000 -1.000000
vn 0.000000 1.000000 0.000000
vn 0.000000 1.000000 0.000000
vn 0.000000 1.000000 0.000000
vn 0.000000 1.000000 0.000000
vn 0.000000 -1.000000 0.000000
vn 0.000000 -1.000000 0.000000
vn 0.000000 -1.000000 0.000000
vn 0.000000 -1.000000 0.000000
vn 1.000000 0.000000 0.000000
vn 1.000000 0.000000 0.000000
vn 1.000000 0.000000 0.000000
vn 1.000000 0.000000 0.000000
vn -1.000000 0.000000 0.000000
vn -1.000000 0.000000 0.000000
vn -1.000000 0.000000 0.000000
vn -1.000000 0.000000 0.000000
vn 0.000000 1.000000 -0.000001
vn 0.000000 1.000000 -0.000001
vn 0.000000 1.000000 -0.000001
vn 0.000000 1.000000 -0.000001
vn 0.000000 1.000000 -0.000001
vn 0.000000 1.000000 -0.000001
vn 0.000000 1.000000 -0.000001
vn 0.000000 1.000000 -0.000001
vn 0.000000 1.000000 -0.000001
vn 0.000000 1.000000 -0.000001
vn 0.000000 1.000000 -0.000001
vn 0.000000 1.000000 -0.000001
vn 0.000000 -1.000000 0.000000
vn 0.000000 -1.000000 0.000000
vn 0.000000 -1.000000 0.000000
vn 0.000000 -1.000000 0.000000
vn 0.000000 -1.000000 0.000000
vn 0.000000 -1.000000 0.000000
vn 0.000000 -1.000000 0.000000
vn 0.000000 -1.000000 0.000000
vn 0.000000 -1.000000 0.000000
vn 0.000000 -1.000000 0.000000
vn 0.000000 -1.000000 0.000000
vn 0.000000 -1.000000 0.000000
vn 0.965926 0.000000 -0.258817
vn 0.965926 0.000000 -0.258817
vn 0.965926 0.000000 -0.258817
vn 0.965926 0.000000 -0.258817
vn 0.707107 0.000000 -0.707107
vn 0.707107 0.000000 -0.707107
vn 0.707107 0.000000 -0.707107
vn 0.707107 0.000000 -0.707107
vn 0.258818 0.000000 -0.965926
vn 0.258818 0.000000 -0.965926
vn 0.258818 0.000000 -0.965926
vn 0.258818 0.000000 -0.965926
vn -0.258818 0.000000 -0.965926
vn -0.258818 0.000000 -0.965926
vn -0.258818 0.000000 -0.965926
vn -0.258818 0.000000 -0.965926
vn -0.707107 0.000000 -0.707107
vn -0.707107 0.000000 -0.707107
vn -0.707107 0.000000 -0.707107
vn -0.707107 0.000000 -0.707107
vn -0.965926 0.000000 -0.258817
vn -0.965926 0.000000 -0.258817
vn -0.965926 0.000000 -0.258817
vn -0.965926 0.000000 -0.258817
vn -0.965926 0.000000 0.258817
vn -0.965926 0.000000 0.258817
vn -0.965926 0.000000 0.258817
vn -0.965926 0.000000 0.258817
vn -0.707107 0.000000 0.707107
vn -0.707107 0.000000 0.707107
vn -0.707107 0.000000 0.707107
vn -0.707107 0.000000 0.707107
vn -0.258818 0.000000 0.965926
vn -0.258818 0.000000 0.965926
vn -0.258818 0.000000 0.965926
vn -0.258818 0.000000 0.965926
vn 0.258818 0.000000 0.965926
vn 0.258818 0.000000 0.965926
vn 0.258818 0.000000 0.965926
vn 0.258818 0.000000 0.965926
vn 0.707107 0.000000 0.707107
vn 0.707107 0.000000 0.707107
vn 0.707107 0.000000 0.707107
vn 0.707107 0.000000 0.707107
vn 0.965926 0.000000 0.258817
vn 0.965926 0.000000 0.258817
vn 0.965926 0.000000 0.258817
vn 0.965926 0.000000 0.258817
vn 0.000000 1.000000 -0.000001
vn 0.000000 1.000000 -0.000001
vn 0.000000 1.000000 -0.000001
vn 0.000000 1.000000 -0.000001
vn 0.000000 1.000000 -0.000001
vn 0.000000 1.000000 -0.000001
vn 0.000000 1.000000 -0.000001
vn 0.000000 1.000000 -0.000001
vn 0.000000 1.000000 -0.000001
vn 0.000000 1.000000 -0.000001
vn 0.000000 1.000000 -0.000001
vn 0.000000 1.000000 -0.000001
vn 0.000000 -1.000000 0.000000
vn 0.000000 -1.000000 0.000000
vn 0.000000 -1.000000 0.000000
vn 0.000000 -1.000000 0.000000
vn 0.000000 -1.000000 0.000000
vn 0.000000 -1.000000 0.000000
vn 0.000000 -1.000000 0.000000
vn 0.000000 -1.000000 0.000000
vn 0.000000 -1.000000 0.000000
vn 0.000000 -1.000000 0.000000
vn 0.000000 -1.000000 0.000000
vn 0.000000 -1.000000 0.000000
vn 0.965926 0.000000 -0.258817
vn 0.965926 0.000000 -0.258817
vn 0.965926 0.000000 -0.258817
vn 0.965926 0.000000 -0.258817
vn 0.707107 0.000000 -0.707107
vn 0.707107 0.000000 -0.707107
vn 0.707107 0.000000 -0.707107
vn 0.707107 0.000000 -0.707107
vn 0.258817 0.000000 -0.965927
vn 0.258817 0.000000 -0.965927
vn 0.258817 0.000000 -0.965927
vn 0.258817 0.000000 -0.965927
vn -0.258817 0.000000 -0.965927
vn -0.258817 0.000000 -0.965927
vn -0.258817 0.000000 -0.965927
vn -0.258817 0.000000 -0.965927
vn -0.707107 0.000000 -0.707107
vn -0.707107 0.000000 -0.707107
vn -0.707107 0.000000 -0.707107
vn -0.707107 0.000000 -0.707107
vn -0.965926 0.000000 -0.258817
vn -0.965926 0.000000 -0.258817
vn -0.965926 0.000000 -0.258817
vn -0.965926 0.000000 -0.258817
vn -0.965926 0.000000 0.258817
vn -0.965926 0.000000 0.258817
vn -0.965926 0.000000 0.258817
vn -0.965926 0.000000 0.258817
vn -0.707107 0.000000 0.707107
vn -0.707107 0.000000 0.707107
vn -0.707107 0.000000 0.707107
vn -0.707107 0.000000 0.707107
vn -0.258818 0.000000 0.965926
vn -0.258818 0.000000 0.965926
vn -0.258818 0.000000 0.965926
vn -0.258818 0.000000 0.965926
vn 0.258818 0.000000 0.965926
vn 0.258818 0.000000 0.965926
vn 0.258818 0.000000 0.965926
vn 0.258818 0.000000 0.965926
vn 0.707107 0.000000 0.707107
vn 0.707107 0.000000 0.707107
vn 0.707107 0.000000 0.707107
vn 0.707107 0.000000 0.707107
vn 0.965926 0.000000 0.258817
vn 0.965926 0.000000 0.258817
vn 0.965926 0.000000 0.258817
vn 0.965926 0.000000 0.258817
vn 0.000000 1.000000 -0.000001
vn 0.000000 1.000000 -0.000001
vn 0.000000 1.000000 -0.000001
vn 0.000000 1.000000 -0.000001
vn 0.000000 1.000000 -0.000001
vn 0.000000 1.000000 -0.000001
vn 0.000000 1.000000 -0.000001
vn 0.000000 1.000000 -0.000001
vn 0.000000 1.000000 -0.000001
vn 0.000000 1.000000 -0.000001
vn 0.000000 1.000000 -0.000001
vn 0.000000 1.000000 -0.000001
vn 0.000000 -1.000000 0.000000
vn 0.000000 -1.000000 0.000000
vn 0.000000 -1.000000 0.000000
vn 0.000000 -1.000000 0.000000
vn 0.000000 -1.000000 0.000000
vn 0.000000 -1.000000 0.000000
vn 0.000000 -1.000000 0.000000
vn 0.000000 -1.000000 0.000000
vn 0.000000 -1.000000 0.000000
vn 0.000000 -1.000000 0.000000
vn 0.000000 -1.000000 0.000000
vn 0.000000 -1.000000 0.000000
vn 0.965926 0.000000 -0.258817
vn 0.965926 0.000000 -0.258817
vn 0.965926 0.000000 -0.258817
vn 0.965926 0.000000 -0.258817
vn 0.707107 0.000000 -0.707107
vn 0.707107 0.000000 -0.707107
vn 0.707107 0.000000 -0.707107
vn 0.707107 0.000000 -0.707107
vn 0.258818 0.000000 -0.965926
vn 0.258818 0.000000 -0.965926
vn 0.258818 0.000000 -0.965926
vn 0.258818 0.000000 -0.965926
vn -0.258818 0.000000 -0.965926
vn -0.258818 0.000000 -0.965926
vn -0.258818 0.000000 -0.965926
vn -0.258818 0.000000 -0.965926
vn -0.707107 0.000000 -0.707107
vn -0.707107 0.000000 -0.707107
vn -0.707107 0.000000 -0.707107
vn -0.707107 0.000000 -0.707107
vn -0.965926 0.000000 -0.258817
vn -0.965926 0.000000 -0.258817
vn -0.965926 0.000000 -0.258817
vn -0.965926 0.000000 -0.258817
vn -0.965926 0.000000 0.258817
vn -0.965926 0.000000 0.258817
vn -0.965926 0.000000 0.258817
vn -0.965926 0.000000 0.258817
vn -0.707107 0.000000 0.707107
vn -0.707107 0.000000 0.707107
vn -0.707107 0.000000 0.707107
vn -0.707107 0.000000 0.707107
vn -0.258818 0.000000 0.965926
vn -0.258818 0.000000 0.965926
vn -0.258818 0.000000 0.965926
vn -0.258818 0.000000 0.965926
vn 0.258818 0.000000 0.965926
vn 0.258818 0.000000 0.965926
vn 0.258818 0.000000 0.965926
vn 0.258818 0.000000 0.965926
vn 0.707107 0.000000 0.707107
vn 0.707107 0.000000 0.707107
vn 0.707107 0.000000 0.707107
vn 0.707107 0.000000 0.707107
vn 0.965926 0.000000 0.258817
vn 0.965926 0.000000 0.258817
vn 0.965926 0.000000 0.258817
vn 0.965926 0.000000 0.258817
vn 0.000000 1.000000 -0.000001
vn 0.000000 1.000000 -0.000001
vn 0.000000 1.000000 -0.000001
vn 0.000000 1.000000 -0.000001
vn 0.000000 1.000000 -0.000001
vn 0.000000 1.000000 -0.000001
vn 0.000000 1.000000 -0.000001
vn 0.000000 1.000000 -0.000001
vn 0.000000 1.000000 -0.000001
vn 0.000000 1.000000 -0.000001
vn 0.000000 1.000000 -0.000001
vn 0.000000 1.000000 -0.000001
vn 0.000000 -1.000000 0.000000
vn 0.000000 -1.000000 0.000000
vn 0.000000 -1.000000 0.000000
vn 0.000000 -1.000000 0.000000
vn 0.000000 -1.000000 0.000000
vn 0.000000 -1.000000 0.000000
vn 0.000000 -1.000000 0.000000
vn 0.000000 -1.000000 0.000000
vn 0.000000 -1.000000 0.000000
vn 0.000000 -1.000000 0.000000
vn 0.000000 -1.000000 0.000000
vn 0.000000 -1.000000 0.000000
vn 0.965926 0.000000 -0.258817
vn 0.965926 0.000000 -0.258817
vn 0.965926 0.000000 -0.258817
vn 0.965926 0.000000 -0.258817
vn 0.707107 0.000000 -0.707107
vn 0.707107 0.000000 -0.707107
vn 0.707107 0.000000 -0.707107
vn 0.707107 0.000000 -0.707107
vn 0.258817 0.000000 -0.965927
vn 0.258817 0.000000 -0.965927
vn 0.258817 0.000000 -0.965927
vn 0.258817 0.000000 -0.965927
vn -0.258817 0.000000 -0.965927
vn -0.258817 0.000000 -0.965927
vn -0.258817 0.000000 -0.965927
vn -0.258817 0.000000 -0.965927
vn -0.707107 0.000000 -0.707107
vn -0.707107 0.000000 -0.707107
vn -0.707107 0.000000 -0.707107
vn -0.707107 0.000000 -0.707107
vn -0.965926 0.000000 -0.258817
vn -0.965926 0.000000 -0.258817
vn -0.965926 0.000000 -0.258817
vn -0.965926 0.000000 -0.258817
vn -0.965926 0.000000 0.258817
vn -0.965926 0.000000 0.258817
vn -0.965926 0.000000 0.258817
vn -0.965926 0.000000 0.258817
vn -0.707107 0.000000 0.707107
vn -0.707107 0.000000 0.707107
vn -0.707107 0.000000 0.707107
vn -0.707107 0.000000 0.707107
vn -0.258818 0.000000 0.965926
vn -0.258818 0.000000 0.965926
vn -0.258818 0.000000 0.965926
vn -0.258818 0.000000 0.965926
vn 0.258818 0.000000 0.965926
vn 0.258818 0.000000 0.965926
vn 0.258818 0.000000 0.965926
vn 0.258818 0.000000 0.965926
vn 0.707107 0.000000 0.707107
vn 0.707107 0.000000 0.707107
vn 0.707107 0.000000 0.707107
vn 0.707107 0.000000 0.707107
vn 0.965926 0.000000 0.258817
vn 0.965926 0.000000 0.258817
vn 0.965926 0.000000 0.258817
vn 0.965926 0.000000 0.258817
s off
g DeskShelf
f 3/1/1 4/2/2 2/3/3 1/4/4
f 7/5/5 8/6/6 6/7/7 5/8/8
f 4/2/9 3/1/10 8/6/11 7/5/12
f 1/4/13 2/3/14 5/8/15 6/7/16
f 8/6/17 3/1/18 1/4/19 6/7/20
f 4/2/21 7/5/22 5/8/23 2/3/24
f 11/9/25 12/10/26 10/11/27 9/12/28
f 15/13/29 16/14/30 14/15/31 13/16/32
f 12/10/33 11/9/34 16/14/35 15/13/36
f 9/12/37 10/11/38 13/16/39 14/15/40
f 16/14/41 11/9/42 9/12/43 14/15/44
f 12/10/45 15/13/46 13/16/47 10/11/48
f 19/17/49 20/18/50 18/19/51 17/20/52
f 23/21/53 24/22/54 22/23/55 21/24/56
f 20/18/57 19/17/58 24/22/59 23/21/60
f 17/20/61 18/19/62 21/24/63 22/23/64
f 24/22/65 19/17/66 17/20/67 22/23/68
f 20/18/69 23/21/70 21/24/71 18/19/72
f 25/25/73 26/26/74 27/27/75 28/28/76 29/29/77 30/30/78 31/31/79 32/32/80 33/33/81 34/34/82 35/35/83 36/36/84
f 48/37/85 47/38/86 46/39/87 45/40/88 44/41/89 43/42/90 42/43/91 41/44/92 40/45/93 39/46/94 38/47/95 37/48/96
f 37/48/97 38/47/98 26/26/99 25/25/100
f 38/47/101 39/46/102 27/27/103 26/26/104
f 39/46/105 40/45/106 28/28/107 27/27/108
f 40/45/109 41/44/110 29/29/111 28/28/112
f 41/44/113 42/43/114 30/30/115 29/29/116
f 42/43/117 43/42/118 31/31/119 30/30/120
f 43/42/121 44/41/122 32/32/123 31/31/124
f 44/41/125 45/40/126 33/33/127 32/32/128
f 45/40/129 46/39/130 34/34/131 33/33/132
f 46/39/133 47/38/134 35/35/135 34/34/136
f 47/38/137 48/37/138 36/36/139 35/35/140
f 48/37/141 37/48/142 25/25/143 36/36/144
f 49/49/145 50/50/146 51/51/147 52/52/148 53/53/149 54/54/150 55/55/151 56/56/152 57/57/153 58/58/154 59/59/155 60/60/156
f 72/61/157 71/62/158 70/63/159 69/64/160 68/65/161 67/66/162 66/67/163 65/68/164 64/69/165 63/70/166 62/71/167 61/72/168
f 61/72/169 62/71/170 50/50/171 49/49/172
f 62/71/173 63/70/174 51/51/175 50/50/176
f 63/70/177 64/69/178 52/52/179 51/51/180
f 64/69/181 65/68/182 53/53/183 52/52/184
f 65/68/185 66/67/186 54/54/187 53/53/188
f 66/67/189 67/66/190 55/55/191 54/54/192
f 67/66/193 68/65/194 56/56/195 55/55/196
f 68/65/197 69/64/198 57/57/199 56/56/200
f 69/64/201 70/63/202 58/58/203 57/57/204
f 70/63/205 71/62/206 59/59/207 58/58/208
f 71/62/209 72/61/210 60/60/211 59/59/212
f 72/61/213 61/72/214 49/49/215 60/60/216
f 73/73/217 74/74/218 75/75/219 76/76/220 77/77/221 78/78/222 79/79/223 80/80/224 81/81/225 82/82/226 83/83/227 84/84/228
f 96/85/229 95/86/230 94/87/231 93/88/232 92/89/233 91/90/234 90/91/235 89/92/236 88/93/237 87/94/238 86/95/239 85/96/240
f 85/96/241 86/95/242 74/74/243 73/73/244
f 86/95/245 87/94/246 75/75/247 74/74/248
f 87/94/249 88/93/250 76/76/251 75/75/252
f 88/93/253 89/92/254 77/77/255 76/76/256
f 89/92/257 90/91/258 78/78/259 77/77/260
f 90/91/261 91/90/262 79/79/263 78/78/264
f 91/90/265 92/89/266 80/80/267 79/79/268
f 92/89/269 93/88/270 81/81/271 80/80/272
f 93/88/273 94/87/274 82/82/275 81/81/276
f 94/87/277 95/86/278 83/83/279 82/82/280
f 95/86/281 96/85/282 84/84/283 83/83/284
f 96/85/285 85/96/286 73/73/287 84/84/288
f 97/97/289 98/98/290 99/99/291 100/100/292 101/101/293 102/102/294 103/103/295 104/104/296 105/105/297 106/106/298 107/107/299 108/108/300
f 120/109/301 119/110/302 118/111/303 117/112/304 116/113/305 115/114/306 114/115/307 113/116/308 112/117/309 111/118/310 110/119/311 109/120/312
f 109/120/313 110/119/314 98/98/315 97/97/316
f 110/119/317 111/118/318 99/99/319 98/98/320
f 111/118/321 112/117/322 100/100/323 99/99/324
f 112/117/325 113/116/326 101/101/327 100/100/328
f 113/116/329 114/115/330 102/102/331 101/101/332
f 114/115/333 115/114/334 103/103/335 102/102/336
f 115/114/337 116/113/338 104/104/339 103/103/340
f 116/113/341 117/112/342 105/105/343 104/104/344
f 117/112/345 118/111/346 106/106/347 105/105/348
f 118/111/349 119/110/350 107/107/351 106/106/352
f 119/110/353 120/109/354 108/108/355 107/107/356
f 120/109/357 109/120/358 97/97/359 108/108/360
