# This file uses centimeters as units for non-parametric coordinates.

g default
v -0.000000 0.422671 -0.000000
v 0.987466 0.422671 -0.320847
v 0.839988 0.422671 -0.610287
v 1.038282 0.422671 0.000000
v 0.987465 0.422671 0.320847
v 0.839988 0.422671 0.610287
v 0.610287 0.422671 0.839988
v 0.320847 0.422671 0.987465
v 0.000000 0.422671 1.038283
v -0.320847 0.422671 0.987465
v -0.610287 0.422671 0.839988
v -0.839988 0.422671 0.610287
v -0.987465 0.422671 0.320847
v -1.038282 0.422671 0.000000
v -0.987465 0.422671 -0.320847
v -0.839988 0.422671 -0.610287
v -0.610287 0.422671 -0.839988
v -0.320847 0.422671 -0.987465
v 0.000000 0.422671 -1.038283
v 0.320847 0.422671 -0.987465
v 0.610287 0.422671 -0.839988
v 1.069190 0.347667 -0.347401
v 0.909507 0.347667 -0.660796
v 1.124213 0.347667 0.000000
v 1.069190 0.347667 0.347401
v 0.909507 0.347667 0.660796
v 0.660796 0.347667 0.909507
v 0.347401 0.347667 1.069190
v 0.000000 0.347667 1.124213
v -0.347401 0.347667 1.069190
v -0.660796 0.347667 0.909507
v -0.909507 0.347667 0.660796
v -1.069190 0.347667 0.347401
v -1.124213 0.347667 0.000000
v -1.069190 0.347667 -0.347401
v -0.909507 0.347667 -0.660796
v -0.660796 0.347667 -0.909507
v -0.347401 0.347667 -1.069190
v 0.000000 0.347667 -1.124213
v 0.347401 0.347667 -1.069190
v 0.660796 0.347667 -0.909507
v 1.129532 0.266311 -0.367007
v 0.960837 0.266311 -0.698089
v 1.187659 0.266311 0.000000
v 1.129531 0.266311 0.367007
v 0.960837 0.266311 0.698089
v 0.698089 0.266311 0.960837
v 0.367007 0.266311 1.129531
v 0.000000 0.266311 1.187660
v -0.367007 0.266311 1.129531
v -0.698089 0.266311 0.960837
v -0.960837 0.266311 0.698089
v -1.129531 0.266311 0.367007
v -1.187659 0.266311 0.000000
v -1.129531 0.266311 -0.367007
v -0.960837 0.266311 -0.698089
v -0.698089 0.266311 -0.960837
v -0.367007 0.266311 -1.129532
v 0.000000 0.266311 -1.187660
v 0.367007 0.266311 -1.129532
v 0.698089 0.266311 -0.960837
v 1.129532 0.051790 -0.367007
v 0.960837 0.051790 -0.698089
v 1.187659 0.051790 0.000000
v 1.129531 0.051790 0.367007
v 0.960837 0.051790 0.698089
v 0.698089 0.051790 0.960837
v 0.367007 0.051790 1.129531
v 0.000000 0.051790 1.187660
v -0.367007 0.051790 1.129531
v -0.698089 0.051790 0.960837
v -0.960837 0.051790 0.698089
v -1.129531 0.051790 0.367007
v -1.187659 0.051790 0.000000
v -1.129531 0.051790 -0.367007
v -0.960837 0.051790 -0.698089
v -0.698089 0.051790 -0.960837
v -0.367007 0.051790 -1.129532
v 0.000000 0.051790 -1.187660
v 0.367007 0.051790 -1.129532
v 0.698089 0.051790 -0.960837
v 1.108857 0.000000 -0.360289
v 0.943249 0.000000 -0.685311
v 1.165920 0.000000 0.000000
v 1.108855 0.000000 0.360289
v 0.943249 0.000000 0.685311
v 0.685311 0.000000 0.943249
v 0.360289 0.000000 1.108855
v 0.000000 0.000000 1.165920
v -0.360289 0.000000 1.108855
v -0.685311 0.000000 0.943249
v -0.943249 0.000000 0.685311
v -1.108855 0.000000 0.360289
v -1.165920 0.000000 0.000000
v -1.108855 0.000000 -0.360289
v -0.943249 0.000000 -0.685311
v -0.685311 0.000000 -0.943249
v -0.360289 0.000000 -1.108856
v 0.000000 0.000000 -1.165920
v 0.360289 0.000000 -1.108856
v 0.685311 0.000000 -0.943249
vt 0.550165 0.051648
vt 0.575801 0.070273
vt 0.580301 0.061440
vt 0.581852 0.051648
vt 0.580301 0.041857
vt 0.575801 0.033023
vt 0.568790 0.026013
vt 0.559957 0.021512
vt 0.550165 0.019961
vt 0.540373 0.021512
vt 0.531540 0.026013
vt 0.524530 0.033023
vt 0.520029 0.041857
vt 0.518478 0.051648
vt 0.520029 0.061440
vt 0.524530 0.070273
vt 0.531540 0.077284
vt 0.540373 0.081784
vt 0.550165 0.083335
vt 0.559957 0.081784
vt 0.568790 0.077284
vt 0.577002 0.060368
vt 0.572994 0.068234
vt 0.578383 0.051648
vt 0.577002 0.042929
vt 0.572994 0.035062
vt 0.566751 0.028819
vt 0.558885 0.024811
vt 0.550165 0.023430
vt 0.541445 0.024811
vt 0.533579 0.028819
vt 0.527336 0.035062
vt 0.523328 0.042929
vt 0.521947 0.051648
vt 0.523328 0.060368
vt 0.527336 0.068234
vt 0.533579 0.074477
vt 0.541445 0.078485
vt 0.550165 0.079866
vt 0.558885 0.078485
vt 0.566751 0.074477
vt 0.579223 0.061090
vt 0.574883 0.069607
vt 0.580719 0.051648
vt 0.579223 0.042207
vt 0.574883 0.033690
vt 0.568124 0.026930
vt 0.559607 0.022590
vt 0.550165 0.021095
vt 0.540724 0.022590
vt 0.532206 0.026930
vt 0.525447 0.033690
vt 0.521107 0.042207
vt 0.519612 0.051648
vt 0.521107 0.061090
vt 0.525447 0.069607
vt 0.532206 0.076367
vt 0.540724 0.080706
vt 0.550165 0.082202
vt 0.559607 0.080706
vt 0.568124 0.076367
vt 0.580863 0.061623
vt 0.576278 0.070621
vt 0.582443 0.051648
vt 0.580863 0.041674
vt 0.576278 0.032676
vt 0.569138 0.025535
vt 0.560140 0.020950
vt 0.550165 0.019371
vt 0.540191 0.020950
vt 0.531193 0.025535
vt 0.524052 0.032676
vt 0.519467 0.041674
vt 0.517888 0.051648
vt 0.519467 0.061623
vt 0.524052 0.070621
vt 0.531193 0.077762
vt 0.540191 0.082346
vt 0.550165 0.083926
vt 0.560140 0.082346
vt 0.569138 0.077762
vt 0.580863 0.061623
vt 0.576278 0.070621
vt 0.582443 0.051648
vt 0.580863 0.041674
vt 0.576278 0.032676
vt 0.569138 0.025535
vt 0.560140 0.020950
vt 0.550165 0.019371
vt 0.540191 0.020950
vt 0.531193 0.025535
vt 0.524052 0.032676
vt 0.519467 0.041674
vt 0.517888 0.051648
vt 0.519467 0.061623
vt 0.524052 0.070621
vt 0.531193 0.077762
vt 0.540191 0.082346
vt 0.550165 0.083926
vt 0.560140 0.082346
vt 0.569138 0.077762
vn 0.004176 -0.999987 -0.003034
vn 0.004910 -0.999987 -0.001595
vn 0.005162 -0.999987 0.000000
vn 0.004910 -0.999987 0.001595
vn 0.004176 -0.999987 0.003034
vn 0.003034 -0.999987 0.004176
vn 0.001595 -0.999987 0.004910
vn 0.000000 -0.999987 0.005162
vn -0.001595 -0.999987 0.004910
vn -0.003034 -0.999987 0.004176
vn -0.004176 -0.999987 0.003034
vn -0.004910 -0.999987 0.001595
vn -0.005162 -0.999987 0.000000
vn -0.004910 -0.999987 -0.001595
vn -0.004176 -0.999987 -0.003034
vn -0.003034 -0.999987 -0.004176
vn -0.001595 -0.999987 -0.004910
vn 0.000000 -0.999987 -0.005162
vn 0.001595 -0.999987 -0.004910
vn 0.003034 -0.999987 -0.004176
vn 0.000000 1.000000 0.000000
vn 0.140206 0.989074 -0.045556
vn 0.119267 0.989074 -0.086652
vn 0.147422 0.989074 0.000000
vn 0.140206 0.989074 0.045556
vn 0.119267 0.989074 0.086652
vn 0.086652 0.989074 0.119267
vn 0.045556 0.989074 0.140206
vn -0.000000 0.989074 0.147422
vn -0.045556 0.989074 0.140206
vn -0.086652 0.989074 0.119267
vn -0.119267 0.989074 0.086652
vn -0.140206 0.989074 0.045556
vn -0.147422 0.989074 0.000000
vn -0.140206 0.989074 -0.045556
vn -0.119267 0.989074 -0.086652
vn -0.086652 0.989074 -0.119266
vn -0.045556 0.989074 -0.140206
vn 0.000000 0.989074 -0.147422
vn 0.045556 0.989074 -0.140206
vn 0.086652 0.989074 -0.119267
vn 0.694069 0.683674 -0.225516
vn 0.590410 0.683674 -0.428958
vn 0.729788 0.683674 0.000001
vn 0.694070 0.683674 0.225517
vn 0.590411 0.683674 0.428958
vn 0.428958 0.683674 0.590411
vn 0.225517 0.683674 0.694069
vn -0.000000 0.683674 0.729787
vn -0.225517 0.683674 0.694069
vn -0.428958 0.683674 0.590410
vn -0.590411 0.683674 0.428958
vn -0.694069 0.683674 0.225516
vn -0.729788 0.683673 -0.000000
vn -0.694070 0.683674 -0.225517
vn -0.590411 0.683674 -0.428958
vn -0.428959 0.683674 -0.590410
vn -0.225517 0.683674 -0.694069
vn 0.000000 0.683674 -0.729787
vn 0.225517 0.683674 -0.694069
vn 0.428959 0.683674 -0.590410
vn 0.932467 0.196752 -0.302976
vn 0.793203 0.196752 -0.576296
vn 0.980453 0.196751 0.000001
vn 0.932467 0.196751 0.302976
vn 0.793204 0.196752 0.576296
vn 0.576296 0.196752 0.793204
vn 0.302977 0.196752 0.932466
vn -0.000000 0.196752 0.980453
vn -0.302977 0.196752 0.932466
vn -0.576296 0.196752 0.793204
vn -0.793204 0.196752 0.576296
vn -0.932467 0.196752 0.302976
vn -0.980454 0.196751 -0.000000
vn -0.932467 0.196751 -0.302976
vn -0.793204 0.196752 -0.576295
vn -0.576296 0.196752 -0.793203
vn -0.302977 0.196752 -0.932466
vn 0.000000 0.196752 -0.980453
vn 0.302977 0.196752 -0.932466
vn 0.576296 0.196752 -0.793203
vn 0.948141 -0.078246 -0.308069
vn 0.806536 -0.078247 -0.585983
vn 0.996934 -0.078247 0.000001
vn 0.948141 -0.078247 0.308069
vn 0.806537 -0.078247 0.585983
vn 0.585983 -0.078247 0.806537
vn 0.308070 -0.078248 0.948140
vn 0.000000 -0.078248 0.996934
vn -0.308070 -0.078248 0.948140
vn -0.585983 -0.078247 0.806537
vn -0.806537 -0.078247 0.585983
vn -0.948141 -0.078247 0.308069
vn -0.996934 -0.078247 0.000000
vn -0.948141 -0.078247 -0.308069
vn -0.806537 -0.078247 -0.585983
vn -0.585984 -0.078247 -0.806536
vn -0.308070 -0.078247 -0.948140
vn 0.000000 -0.078247 -0.996934
vn 0.308070 -0.078247 -0.948140
vn 0.585983 -0.078247 -0.806536
s 1
g FlaskMeasureBase
f 83/2/1 82/3/2 84/4/3 85/5/4 86/6/5 87/7/6 88/8/7 89/9/8 90/10/9 91/11/10 92/12/11 93/13/12 94/14/13 95/15/14 96/16/15 97/17/16 98/18/17 99/19/18 100/20/19 101/21/20
f 1/1/21 2/22/22 3/23/23
f 1/1/21 4/24/24 2/22/22
f 1/1/21 5/25/25 4/24/24
f 1/1/21 6/26/26 5/25/25
f 1/1/21 7/27/27 6/26/26
f 1/1/21 8/28/28 7/27/27
f 1/1/21 9/29/29 8/28/28
f 1/1/21 10/30/30 9/29/29
f 1/1/21 11/31/31 10/30/30
f 1/1/21 12/32/32 11/31/31
f 1/1/21 13/33/33 12/32/32
f 1/1/21 14/34/34 13/33/33
f 1/1/21 15/35/35 14/34/34
f 1/1/21 16/36/36 15/35/35
f 1/1/21 17/37/37 16/36/36
f 1/1/21 18/38/38 17/37/37
f 1/1/21 19/39/39 18/38/38
f 1/1/21 20/40/40 19/39/39
f 1/1/21 21/41/41 20/40/40
f 1/1/21 3/23/23 21/41/41
f 3/23/23 2/22/22 22/42/42 23/43/43
f 2/22/22 4/24/24 24/44/44 22/42/42
f 4/24/24 5/25/25 25/45/45 24/44/44
f 5/25/25 6/26/26 26/46/46 25/45/45
f 6/26/26 7/27/27 27/47/47 26/46/46
f 7/27/27 8/28/28 28/48/48 27/47/47
f 8/28/28 9/29/29 29/49/49 28/48/48
f 9/29/29 10/30/30 30/50/50 29/49/49
f 10/30/30 11/31/31 31/51/51 30/50/50
f 11/31/31 12/32/32 32/52/52 31/51/51
f 12/32/32 13/33/33 33/53/53 32/52/52
f 13/33/33 14/34/34 34/54/54 33/53/53
f 14/34/34 15/35/35 35/55/55 34/54/54
f 15/35/35 16/36/36 36/56/56 35/55/55
f 16/36/36 17/37/37 37/57/57 36/56/56
f 17/37/37 18/38/38 38/58/58 37/57/57
f 18/38/38 19/39/39 39/59/59 38/58/58
f 19/39/39 20/40/40 40/60/60 39/59/59
f 20/40/40 21/41/41 41/61/61 40/60/60
f 21/41/41 3/23/23 23/43/43 41/61/61
f 23/43/43 22/42/42 42/62/62 43/63/63
f 22/42/42 24/44/44 44/64/64 42/62/62
f 24/44/44 25/45/45 45/65/65 44/64/64
f 25/45/45 26/46/46 46/66/66 45/65/65
f 26/46/46 27/47/47 47/67/67 46/66/66
f 27/47/47 28/48/48 48/68/68 47/67/67
f 28/48/48 29/49/49 49/69/69 48/68/68
f 29/49/49 30/50/50 50/70/70 49/69/69
f 30/50/50 31/51/51 51/71/71 50/70/70
f 31/51/51 32/52/52 52/72/72 51/71/71
f 32/52/52 33/53/53 53/73/73 52/72/72
f 33/53/53 34/54/54 54/74/74 53/73/73
f 34/54/54 35/55/55 55/75/75 54/74/74
f 35/55/55 36/56/56 56/76/76 55/75/75
f 36/56/56 37/57/57 57/77/77 56/76/76
f 37/57/57 38/58/58 58/78/78 57/77/77
f 38/58/58 39/59/59 59/79/79 58/78/78
f 39/59/59 40/60/60 60/80/80 59/79/79
f 40/60/60 41/61/61 61/81/81 60/80/80
f 41/61/61 23/43/43 43/63/63 61/81/81
f 43/63/63 42/62/62 62/82/82 63/83/83
f 42/62/62 44/64/64 64/84/84 62/82/82
f 44/64/64 45/65/65 65/85/85 64/84/84
f 45/65/65 46/66/66 66/86/86 65/85/85
f 46/66/66 47/67/67 67/87/87 66/86/86
f 47/67/67 48/68/68 68/88/88 67/87/87
f 48/68/68 49/69/69 69/89/89 68/88/88
f 49/69/69 50/70/70 70/90/90 69/89/89
f 50/70/70 51/71/71 71/91/91 70/90/90
f 51/71/71 52/72/72 72/92/92 71/91/91
f 52/72/72 53/73/73 73/93/93 72/92/92
f 53/73/73 54/74/74 74/94/94 73/93/93
f 54/74/74 55/75/75 75/95/95 74/94/94
f 55/75/75 56/76/76 76/96/96 75/95/95
f 56/76/76 57/77/77 77/97/97 76/96/96
f 57/77/77 58/78/78 78/98/98 77/97/97
f 58/78/78 59/79/79 79/99/99 78/98/98
f 59/79/79 60/80/80 80/100/100 79/99/99
f 60/80/80 61/81/81 81/101/101 80/100/100
f 61/81/81 43/63/63 63/83/83 81/101/101
f 63/83/83 62/82/82 82/3/2 83/2/1
f 62/82/82 64/84/84 84/4/3 82/3/2
f 64/84/84 65/85/85 85/5/4 84/4/3
f 65/85/85 66/86/86 86/6/5 85/5/4
f 66/86/86 67/87/87 87/7/6 86/6/5
f 67/87/87 68/88/88 88/8/7 87/7/6
f 68/88/88 69/89/89 89/9/8 88/8/7
f 69/89/89 70/90/90 90/10/9 89/9/8
f 70/90/90 71/91/91 91/11/10 90/10/9
f 71/91/91 72/92/92 92/12/11 91/11/10
f 72/92/92 73/93/93 93/13/12 92/12/11
f 73/93/93 74/94/94 94/14/13 93/13/12
f 74/94/94 75/95/95 95/15/14 94/14/13
f 75/95/95 76/96/96 96/16/15 95/15/14
f 76/96/96 77/97/97 97/17/16 96/16/15
f 77/97/97 78/98/98 98/18/17 97/17/16
f 78/98/98 79/99/99 99/19/18 98/18/17
f 79/99/99 80/100/100 100/20/19 99/19/18
f 80/100/100 81/101/101 101/21/20 100/20/19
f 81/101/101 63/83/83 83/2/1 101/21/20
