# This file uses centimeters as units for non-parametric coordinates.

g default
v -0.219619 -0.036380 1.673996
v 0.219619 -0.036473 1.673996
v -0.219619 0.036380 1.664656
v 0.219619 0.036473 1.664656
v -0.211065 0.036791 1.284940
v 0.211065 0.036890 1.284940
v -0.209540 0.036868 0.898113
v 0.209540 0.036969 0.898113
v -0.191127 0.037902 0.513240
v 0.191127 0.038009 0.513240
v -0.157770 0.034922 0.128409
v 0.157770 0.034922 0.128409
v -0.120643 0.039273 0.102287
v 0.120643 0.039273 0.102287
v -0.120643 0.019435 -0.282543
v 0.120643 0.009552 -0.282543
v -0.120643 0.019435 -0.668592
v 0.120643 0.009552 -0.668592
v -0.120643 0.019435 -1.114990
v 0.120643 0.009552 -1.114990
v -0.120643 0.010063 -1.942408
v 0.120643 0.009552 -1.640816
v -0.120643 -0.010063 -1.942408
v 0.120643 -0.009552 -1.640816
v -0.120643 -0.019435 -1.116113
v 0.120643 -0.009552 -1.116116
v -0.120643 -0.019435 -0.668642
v 0.120643 -0.009552 -0.668642
v -0.120643 -0.019435 -0.282544
v 0.120643 -0.009552 -0.282544
v -0.120643 -0.039273 0.102287
v 0.120643 -0.039273 0.102287
v -0.157770 -0.034922 0.128408
v 0.157770 -0.034922 0.128408
v -0.191127 -0.037902 0.513239
v 0.191127 -0.038009 0.513239
v -0.209540 -0.036868 0.898161
v 0.209540 -0.036969 0.898161
v -0.211065 -0.036791 1.289326
v 0.211065 -0.036890 1.289326
v -0.207227 -0.036989 1.762913
v 0.207227 -0.037090 1.762913
v 0.207227 0.037090 1.753337
v -0.207227 0.036989 1.753337
v -0.158098 -0.040086 1.857941
v 0.158098 -0.040189 1.857941
v 0.158098 0.040189 1.855707
v -0.158098 0.040087 1.855707
v -0.070907 -0.041748 1.927412
v 0.070907 -0.041748 1.927412
v 0.070907 0.041748 1.925178
v -0.070907 0.041748 1.925178
v 0.000636 -0.009552 -1.872503
v 0.000584 -0.025868 -1.116116
v 0.000481 -0.025868 -0.668642
v 0.000480 -0.025868 -0.282544
v 0.000556 -0.046131 0.102287
v 0.000729 -0.046131 0.128408
v 0.000883 -0.063067 0.513239
v 0.000969 -0.063067 0.898161
v 0.000976 -0.063067 1.289326
v 0.001015 -0.063067 1.673994
v 0.000958 -0.063067 1.762913
v 0.000731 -0.059086 1.865283
v 0.000328 -0.041777 1.937089
v 0.000328 0.041778 1.934856
v 0.000731 0.059086 1.855707
v 0.000958 0.063067 1.753337
v 0.001015 0.063067 1.664651
v 0.000976 0.063067 1.284940
v 0.000969 0.063067 0.898113
v 0.000883 0.063067 0.513240
v 0.000729 0.046131 0.128409
v 0.000556 0.046131 0.102287
v 0.000480 0.025868 -0.282543
v 0.000481 0.025868 -0.668592
v 0.000584 0.025868 -1.114990
v 0.000636 0.009552 -1.872502
v 0.067069 0.009552 -1.772657
v 0.061580 0.014446 -1.114401
v 0.050727 0.016280 -0.668574
v 0.050618 0.016280 -0.282543
v 0.058658 0.046101 0.102287
v 0.076952 0.044640 0.128409
v 0.093222 0.062890 0.513240
v 0.102203 0.063067 0.898113
v 0.102947 0.063067 1.284940
v 0.107119 0.063067 1.664651
v 0.101075 0.063067 1.753337
v 0.077112 0.059142 1.855707
v 0.034585 0.040697 1.940175
v 0.034585 -0.040697 1.942408
v 0.077112 -0.059141 1.865283
v 0.101075 -0.063067 1.762913
v 0.107119 -0.063067 1.673994
v 0.102947 -0.063067 1.289326
v 0.102203 -0.063067 0.898161
v 0.093222 -0.062890 0.513239
v 0.076952 -0.044640 0.128408
v 0.058658 -0.046101 0.102287
v 0.050618 -0.016280 -0.282544
v 0.050727 -0.016280 -0.668623
v 0.061580 -0.014446 -1.115518
v 0.067069 -0.009552 -1.772657
v -0.066415 -0.009552 -1.929969
v -0.060979 -0.024273 -1.115518
v -0.050232 -0.025560 -0.668623
v -0.050124 -0.025572 -0.282544
v -0.058086 -0.046109 0.102287
v -0.076202 -0.044724 0.128408
v -0.092313 -0.062932 0.513239
v -0.101206 -0.063067 0.898161
v -0.101943 -0.063067 1.289326
v -0.106074 -0.063067 1.673994
v -0.100089 -0.063067 1.762913
v -0.076360 -0.059129 1.865283
v -0.034247 -0.040628 1.942408
v -0.034247 0.040629 1.940175
v -0.076360 0.059129 1.855707
v -0.100089 0.063067 1.753337
v -0.106074 0.063067 1.664651
v -0.101943 0.063067 1.284940
v -0.101206 0.063067 0.898113
v -0.092313 0.062932 0.513240
v -0.076202 0.044724 0.128409
v -0.058086 0.046110 0.102287
v -0.050124 0.025573 -0.282543
v -0.050232 0.025561 -0.668574
v -0.060979 0.024273 -1.114401
v -0.066415 0.009552 -1.929969
vt 0.375000 0.000000
vt 0.625000 0.000000
vt 0.375000 0.250000
vt 0.625000 0.250000
vt 0.375000 0.275000
vt 0.625000 0.275000
vt 0.375000 0.300000
vt 0.625000 0.300000
vt 0.375000 0.325000
vt 0.625000 0.325000
vt 0.375000 0.350000
vt 0.625000 0.350000
vt 0.375000 0.375000
vt 0.625000 0.375000
vt 0.375000 0.400000
vt 0.625000 0.400000
vt 0.375000 0.425000
vt 0.625000 0.425000
vt 0.375000 0.450000
vt 0.625000 0.450000
vt 0.375000 0.475000
vt 0.625000 0.475000
vt 0.375000 0.775000
vt 0.625000 0.775000
vt 0.375000 0.800000
vt 0.625000 0.800000
vt 0.375000 0.825000
vt 0.625000 0.825000
vt 0.375000 0.850000
vt 0.625000 0.850000
vt 0.375000 0.875000
vt 0.625000 0.875000
vt 0.375000 0.900000
vt 0.625000 0.900000
vt 0.375000 0.925000
vt 0.625000 0.925000
vt 0.375000 0.950000
vt 0.625000 0.950000
vt 0.375000 0.975000
vt 0.625000 0.975000
vt 0.375000 1.000000
vt 0.625000 1.000000
vt 0.850000 0.000000
vt 0.825000 0.000000
vt 0.800000 0.000000
vt 0.775000 0.000000
vt 0.750000 0.000000
vt 0.725000 0.000000
vt 0.700000 0.000000
vt 0.675000 0.000000
vt 0.650000 0.000000
vt 0.850000 0.250000
vt 0.825000 0.250000
vt 0.800000 0.250000
vt 0.775000 0.250000
vt 0.750000 0.250000
vt 0.725000 0.250000
vt 0.700000 0.250000
vt 0.675000 0.250000
vt 0.650000 0.250000
vt 0.150000 0.000000
vt 0.175000 0.000000
vt 0.200000 0.000000
vt 0.225000 0.000000
vt 0.250000 0.000000
vt 0.275000 0.000000
vt 0.300000 0.000000
vt 0.325000 0.000000
vt 0.350000 0.000000
vt 0.150000 0.250000
vt 0.175000 0.250000
vt 0.200000 0.250000
vt 0.225000 0.250000
vt 0.250000 0.250000
vt 0.275000 0.250000
vt 0.300000 0.250000
vt 0.325000 0.250000
vt 0.350000 0.250000
vt 0.375000 0.000000
vt 0.625000 0.000000
vt 0.625000 0.250000
vt 0.375000 0.250000
vt 0.375000 0.000000
vt 0.625000 0.000000
vt 0.625000 0.250000
vt 0.375000 0.250000
vt 0.375000 0.000000
vt 0.625000 0.000000
vt 0.625000 0.250000
vt 0.375000 0.250000
vt 0.500578 0.775000
vt 0.500578 0.800000
vt 0.500578 0.825000
vt 0.500578 0.850000
vt 0.500578 0.875000
vt 0.500578 0.900000
vt 0.500578 0.925000
vt 0.500578 0.950000
vt 0.500578 0.975000
vt 0.500578 0.000000
vt 0.500578 1.000000
vt 0.500578 0.000000
vt 0.500578 0.000000
vt 0.500578 0.000000
vt 0.500578 0.250000
vt 0.500578 0.250000
vt 0.500578 0.250000
vt 0.500578 0.250000
vt 0.500578 0.275000
vt 0.500578 0.300000
vt 0.500578 0.325000
vt 0.500578 0.350000
vt 0.500578 0.375000
vt 0.500578 0.400000
vt 0.500578 0.425000
vt 0.500578 0.450000
vt 0.500578 0.475000
vt 0.560969 0.475000
vt 0.560969 0.450000
vt 0.560969 0.425000
vt 0.560969 0.400000
vt 0.560969 0.375000
vt 0.560969 0.350000
vt 0.560969 0.325000
vt 0.560969 0.300000
vt 0.560969 0.275000
vt 0.560969 0.250000
vt 0.560969 0.250000
vt 0.560969 0.250000
vt 0.560969 0.250000
vt 0.560969 0.000000
vt 0.560969 0.000000
vt 0.560969 0.000000
vt 0.560969 0.000000
vt 0.560969 1.000000
vt 0.560969 0.975000
vt 0.560969 0.950000
vt 0.560969 0.925000
vt 0.560969 0.900000
vt 0.560969 0.875000
vt 0.560969 0.850000
vt 0.560969 0.825000
vt 0.560969 0.800000
vt 0.560969 0.775000
vt 0.439626 0.775000
vt 0.439626 0.800000
vt 0.439626 0.825000
vt 0.439626 0.850000
vt 0.439626 0.875000
vt 0.439626 0.900000
vt 0.439626 0.925000
vt 0.439626 0.950000
vt 0.439626 0.975000
vt 0.439626 0.000000
vt 0.439626 1.000000
vt 0.439626 0.000000
vt 0.439626 0.000000
vt 0.439626 0.000000
vt 0.439626 0.250000
vt 0.439626 0.250000
vt 0.439626 0.250000
vt 0.439626 0.250000
vt 0.439626 0.275000
vt 0.439626 0.300000
vt 0.439626 0.325000
vt 0.439626 0.350000
vt 0.439626 0.375000
vt 0.439626 0.400000
vt 0.439626 0.425000
vt 0.439626 0.450000
vt 0.439626 0.475000
vt 0.000000 0.000000
vt 1.000000 0.000000
vt 1.000000 1.000000
vt 0.000000 1.000000
vt 0.000000 0.000000
vt 1.000000 0.000000
vt 1.000000 1.000000
vt 0.000000 1.000000
vt 0.000000 0.000000
vt 1.000000 0.000000
vt 1.000000 1.000000
vt 0.000000 1.000000
vt 0.000000 0.000000
vt 1.000000 0.000000
vt 1.000000 1.000000
vt 0.000000 1.000000
vn -0.562603 0.022509 0.826421
vn -0.133596 0.026851 0.990672
vn -0.134663 0.026848 0.990528
vn -0.564175 0.022481 0.825349
vn -0.231604 0.972810 0.000915
vn -0.123194 0.992382 0.000701
vn -0.122041 0.992525 -0.001027
vn -0.232973 0.972481 -0.001978
vn -0.125639 0.992074 -0.002117
vn -0.237205 0.971452 -0.003841
vn -0.115730 0.993041 -0.021820
vn -0.217778 0.975762 -0.021456
vn -0.100060 0.994156 -0.040515
vn -0.188013 0.981405 -0.038665
vn -0.044060 0.998961 0.011640
vn -0.114671 0.993329 -0.012177
vn -0.096891 0.993876 -0.053139
vn -0.055212 0.997061 -0.053120
vn -0.053608 0.998209 -0.026558
vn -0.091666 0.995456 -0.025771
vn -0.052752 0.998608 -0.000437
vn -0.085291 0.996356 -0.000221
vn -0.031641 0.999435 -0.011311
vn -0.054455 0.998474 -0.009169
vn -0.025251 0.999548 -0.016290
vn -0.036297 0.999235 -0.014533
vn -0.036294 -0.999235 -0.014553
vn -0.025245 -0.999548 -0.016313
vn -0.031667 -0.999435 -0.011310
vn -0.054494 -0.998472 -0.009169
vn -0.052753 -0.998608 -0.000437
vn -0.085290 -0.996356 -0.000221
vn -0.053609 -0.998209 -0.026557
vn -0.091666 -0.995456 -0.025770
vn -0.055213 -0.997061 -0.053120
vn -0.096891 -0.993875 -0.053140
vn -0.114672 -0.993329 -0.012182
vn -0.044060 -0.998961 0.011634
vn -0.100061 -0.994156 -0.040516
vn -0.188015 -0.981405 -0.038665
vn -0.115732 -0.993041 -0.021819
vn -0.217781 -0.975762 -0.021455
vn -0.125626 -0.992075 -0.002104
vn -0.237191 -0.971456 -0.003818
vn -0.122044 -0.992524 -0.001015
vn -0.232972 -0.972481 -0.001954
vn -0.123175 -0.992385 0.000693
vn -0.231602 -0.972810 0.000905
vn 1.000000 -0.000000 0.000000
vn 0.996693 0.000000 -0.081262
vn 0.996693 0.000000 -0.081260
vn 1.000000 -0.000000 0.000000
vn 1.000000 0.000000 0.000000
vn 1.000000 0.000000 0.000000
vn 1.000000 -0.000000 -0.000000
vn 1.000000 -0.000000 -0.000000
vn 1.000000 -0.000000 -0.000000
vn 1.000000 -0.000000 -0.000000
vn 0.984636 0.000000 -0.174622
vn 0.575414 0.000001 -0.817862
vn 0.575414 0.000001 -0.817862
vn 0.984636 0.000000 -0.174622
vn 0.997766 -0.000008 -0.066806
vn 0.997766 -0.000008 -0.066806
vn 0.999664 -0.000066 -0.025931
vn 0.999663 -0.000066 -0.025949
vn 0.999910 -0.001130 -0.013383
vn 0.999919 -0.001056 -0.012685
vn 0.999919 0.002225 0.012523
vn 0.999989 0.001232 0.004497
vn -1.000000 0.000000 0.000000
vn -1.000000 0.000000 0.000000
vn -1.000000 0.000000 0.000000
vn -1.000000 0.000000 0.000000
vn -1.000000 0.000000 0.000000
vn -1.000000 0.000000 0.000000
vn -1.000000 -0.000000 -0.000000
vn -1.000000 -0.000000 -0.000000
vn -1.000000 -0.000000 -0.000000
vn -1.000000 -0.000000 -0.000000
vn -0.575414 0.000001 -0.817862
vn -0.984612 0.000000 -0.174755
vn -0.984612 0.000000 -0.174754
vn -0.575414 0.000001 -0.817862
vn -0.997765 -0.000008 -0.066820
vn -0.997765 -0.000008 -0.066820
vn -0.999664 -0.000067 -0.025930
vn -0.999663 -0.000066 -0.025948
vn -0.999910 -0.001134 -0.013384
vn -0.999919 -0.001058 -0.012685
vn -0.999919 0.002232 0.012532
vn -0.999989 0.001234 0.004486
vn -0.126970 -0.991127 0.039330
vn -0.233473 -0.971218 0.047178
vn 0.951878 0.026751 0.305307
vn 0.944062 0.027977 0.328580
vn -0.232213 0.971540 0.046764
vn -0.127556 0.991072 0.038811
vn -0.944050 0.028053 0.328606
vn -0.951888 0.026820 0.305270
vn -0.107614 -0.986387 0.124337
vn -0.230987 -0.966625 0.110822
vn 0.772477 0.028117 0.634420
vn 0.768599 0.027936 0.639121
vn -0.224669 0.968429 0.108020
vn -0.106587 0.987418 0.116813
vn -0.768454 0.027987 0.639292
vn -0.772342 0.028170 0.634582
vn -0.047126 -0.968163 0.245845
vn -0.195131 -0.939935 0.280083
vn 0.565213 0.022437 0.824640
vn 0.563663 0.022464 0.825699
vn -0.175962 0.951622 0.251900
vn -0.045877 0.973413 0.224414
vn 0.101224 -0.994845 -0.006098
vn 0.095238 -0.995364 -0.013446
vn 0.047958 -0.998842 -0.003913
vn 0.067209 -0.997736 -0.002551
vn 0.134978 -0.990849 -0.000195
vn 0.092631 -0.995700 -0.000486
vn 0.115317 -0.992676 -0.036005
vn 0.098756 -0.994397 -0.037698
vn 0.095831 -0.992763 -0.072373
vn 0.101839 -0.991755 -0.077787
vn 0.100690 -0.994087 -0.040640
vn 0.044568 -0.998927 0.012589
vn 0.115086 -0.993288 -0.011595
vn 0.188477 -0.981307 -0.038905
vn 0.116375 -0.992963 -0.021943
vn 0.218542 -0.975588 -0.021627
vn 0.126291 -0.991991 -0.002147
vn 0.238296 -0.971185 -0.003871
vn 0.122707 -0.992442 -0.001023
vn 0.234192 -0.972188 -0.001969
vn 0.123871 -0.992298 0.000700
vn 0.232832 -0.972517 0.000913
vn 0.127671 -0.991027 0.039557
vn 0.234666 -0.970914 0.047516
vn 0.108166 -0.986257 0.124892
vn 0.232223 -0.966238 0.111610
vn 0.046592 -0.968166 0.245934
vn 0.197063 -0.938805 0.282511
vn 0.135907 0.026821 0.990358
vn 0.134824 0.026825 0.990506
vn 0.225828 0.968073 0.108794
vn 0.107101 0.987306 0.117285
vn 0.045379 0.973417 0.224500
vn 0.177555 0.950791 0.253911
vn 0.233384 0.971244 0.047095
vn 0.128255 0.990973 0.039032
vn 0.232833 0.972516 0.000922
vn 0.123890 0.992296 0.000707
vn 0.122703 0.992443 -0.001035
vn 0.234193 0.972188 -0.001993
vn 0.126304 0.991989 -0.002160
vn 0.238309 0.971182 -0.003894
vn 0.116373 0.992963 -0.021944
vn 0.218539 0.975589 -0.021628
vn 0.100690 0.994088 -0.040640
vn 0.188476 0.981307 -0.038905
vn 0.044568 0.998927 0.012595
vn 0.115086 0.993288 -0.011590
vn 0.115316 0.992676 -0.036007
vn 0.095831 0.992763 -0.072373
vn 0.101839 0.991755 -0.077787
vn 0.098757 0.994397 -0.037700
vn 0.134979 0.990848 -0.000195
vn 0.092634 0.995700 -0.000486
vn 0.101155 0.994852 -0.006098
vn 0.067163 0.997739 -0.002551
vn 0.095219 0.995366 -0.013424
vn 0.047950 0.998842 -0.003906
vn 0.015977 0.999697 -0.018749
vn 0.059182 0.998180 -0.011561
vn 0.088024 0.996118 -0.000273
vn 0.066385 0.997319 -0.030793
vn 0.042658 0.997326 -0.059336
vn 0.000296 0.999726 0.023417
vn 0.000369 0.999105 -0.042294
vn 0.000231 0.999770 -0.021465
vn 0.000052 1.000000 -0.000103
vn -0.000000 1.000000 -0.000000
vn -0.000000 1.000000 -0.000000
vn -0.000018 0.999816 0.019185
vn -0.000142 0.995122 0.098651
vn -0.000342 0.976958 0.213431
vn -0.000149 0.027078 0.999633
vn -0.000152 0.027078 0.999633
vn -0.000337 -0.972450 0.233113
vn -0.000136 -0.994820 0.101654
vn -0.000018 -0.999816 0.019160
vn 0.000000 -1.000000 0.000000
vn 0.000000 -1.000000 0.000000
vn 0.000052 -1.000000 -0.000102
vn 0.000231 -0.999770 -0.021464
vn 0.000369 -0.999105 -0.042295
vn 0.000296 -0.999726 0.023411
vn 0.042657 -0.997326 -0.059336
vn 0.066386 -0.997319 -0.030791
vn 0.088019 -0.996119 -0.000272
vn 0.059221 -0.998178 -0.011564
vn 0.015987 -0.999696 -0.018777
vn 0.223578 0.000000 -0.974686
vn 0.496116 0.000003 -0.868256
vn 0.496116 0.000003 -0.868256
vn 0.223578 0.000000 -0.974686
vn 0.762493 0.000004 -0.646996
vn 0.762495 0.000004 -0.646995
vn 0.887952 0.000003 -0.459937
vn 0.887952 0.000003 -0.459937
s 1
g Knife
f 49/87/1 117/158/2 118/159/3 52/90/4
s 2
f 3/3/5 121/162/6 122/163/7 5/5/8
f 5/5/8 122/163/7 123/164/9 7/7/10
f 7/7/10 123/164/9 124/165/11 9/9/12
f 9/9/12 124/165/11 125/166/13 11/11/14
f 11/11/14 125/166/13 126/167/15 13/13/16
s 3
f 13/13/17 126/167/18 127/168/19 15/15/20
f 15/15/20 127/168/19 128/169/21 17/17/22
f 17/17/22 128/169/21 129/170/23 19/19/24
f 19/19/24 129/170/23 130/171/25 21/21/26
s 4
f 23/23/27 105/145/28 106/146/29 25/25/30
f 25/25/30 106/146/29 107/147/31 27/27/32
f 27/27/32 107/147/31 108/148/33 29/29/34
f 29/29/34 108/148/33 109/149/35 31/31/36
s 5
f 31/31/37 109/149/38 110/150/39 33/33/40
f 33/33/40 110/150/39 111/151/41 35/35/42
f 35/35/42 111/151/41 112/152/43 37/37/44
f 37/37/44 112/152/43 113/153/45 39/39/46
f 39/39/46 113/153/45 114/155/47 1/41/48
s 6
f 26/44/49 24/43/50 22/52/51 20/53/52
f 28/45/53 26/44/49 20/53/52 18/54/54
f 30/46/55 28/45/53 18/54/54 16/55/56
f 32/47/57 30/46/55 16/55/56 14/56/58
s 1
f 34/48/59 32/47/60 14/56/61 12/57/62
f 36/49/63 34/48/59 12/57/62 10/58/64
f 38/50/65 36/49/63 10/58/64 8/59/66
f 40/51/67 38/50/65 8/59/66 6/60/68
f 2/2/69 40/51/67 6/60/68 4/4/70
s 8
f 23/61/71 25/62/72 19/71/73 21/70/74
f 25/62/72 27/63/75 17/72/76 19/71/73
f 27/63/75 29/64/77 15/73/78 17/72/76
f 29/64/77 31/65/79 13/74/80 15/73/78
s 1
f 31/65/81 33/66/82 11/75/83 13/74/84
f 33/66/82 35/67/85 9/76/86 11/75/83
f 35/67/85 37/68/87 7/77/88 9/76/86
f 37/68/87 39/69/89 5/78/90 7/77/88
f 39/69/89 1/1/91 3/3/92 5/78/90
s 5
f 1/1/48 114/154/47 115/156/93 41/79/94
s 1
f 2/2/69 4/4/70 43/81/95 42/80/96
s 2
f 121/162/6 3/3/5 44/82/97 120/161/98
s 1
f 3/3/92 1/1/91 41/79/99 44/82/100
s 5
f 41/79/94 115/156/93 116/157/101 45/83/102
s 1
f 42/80/96 43/81/95 47/85/103 46/84/104
s 2
f 120/161/98 44/82/97 48/86/105 119/160/106
s 1
f 44/82/100 41/79/99 45/83/107 48/86/108
s 5
f 45/83/102 116/157/101 117/158/109 49/87/110
s 1
f 46/84/104 47/85/103 51/89/111 50/88/112
s 2
f 119/160/106 48/86/105 52/90/113 118/159/114
s 1
f 48/86/108 45/83/107 49/87/1 52/90/4
s 4
f 103/143/115 104/144/116 24/24/117 26/26/118
f 102/142/119 103/143/115 26/26/118 28/28/120
f 101/141/121 102/142/119 28/28/120 30/30/122
f 100/140/123 101/141/121 30/30/122 32/32/124
s 5
f 99/139/125 100/140/126 32/32/127 34/34/128
f 98/138/129 99/139/125 34/34/128 36/36/130
f 97/137/131 98/138/129 36/36/130 38/38/132
f 96/136/133 97/137/131 38/38/132 40/40/134
f 95/135/135 96/136/133 40/40/134 2/42/136
f 94/133/137 95/134/135 2/2/136 42/80/138
f 93/132/139 94/133/137 42/80/138 46/84/140
f 92/131/141 93/132/139 46/84/140 50/88/142
s 1
f 91/130/143 92/131/144 50/88/112 51/89/111
s 2
f 47/85/145 90/129/146 91/130/147 51/89/148
f 43/81/149 89/128/150 90/129/146 47/85/145
f 4/4/151 88/127/152 89/128/150 43/81/149
f 87/126/153 88/127/152 4/4/151 6/6/154
f 86/125/155 87/126/153 6/6/154 8/8/156
f 85/124/157 86/125/155 8/8/156 10/10/158
f 84/123/159 85/124/157 10/10/158 12/12/160
f 83/122/161 84/123/159 12/12/160 14/14/162
s 3
f 82/121/163 83/122/164 14/14/165 16/16/166
f 81/120/167 82/121/163 16/16/166 18/18/168
f 80/119/169 81/120/167 18/18/168 20/20/170
f 79/118/171 80/119/169 20/20/170 22/22/172
f 78/117/173 77/116/174 80/119/169 79/118/171
f 77/116/174 76/115/175 81/120/167 80/119/169
f 76/115/175 75/114/176 82/121/163 81/120/167
f 75/114/176 74/113/177 83/122/164 82/121/163
s 2
f 74/113/178 73/112/179 84/123/159 83/122/161
f 73/112/179 72/111/180 85/124/157 84/123/159
f 72/111/180 71/110/181 86/125/155 85/124/157
f 71/110/181 70/109/182 87/126/153 86/125/155
f 70/109/182 69/108/183 88/127/152 87/126/153
f 89/128/150 88/127/152 69/108/183 68/107/184
f 90/129/146 89/128/150 68/107/184 67/106/185
f 91/130/147 90/129/146 67/106/185 66/105/186
s 1
f 66/105/187 65/104/188 92/131/144 91/130/143
s 5
f 65/104/189 64/103/190 93/132/139 92/131/141
f 64/103/190 63/102/191 94/133/137 93/132/139
f 63/102/191 62/100/192 95/134/135 94/133/137
f 62/101/192 61/99/193 96/136/133 95/135/135
f 61/99/193 60/98/194 97/137/131 96/136/133
f 60/98/194 59/97/195 98/138/129 97/137/131
f 59/97/195 58/96/196 99/139/125 98/138/129
f 58/96/196 57/95/197 100/140/126 99/139/125
s 4
f 57/95/198 56/94/199 101/141/121 100/140/123
f 56/94/199 55/93/200 102/142/119 101/141/121
f 55/93/200 54/92/201 103/143/115 102/142/119
f 54/92/201 53/91/202 104/144/116 103/143/115
f 106/146/29 105/145/28 53/91/202 54/92/201
f 107/147/31 106/146/29 54/92/201 55/93/200
f 108/148/33 107/147/31 55/93/200 56/94/199
f 109/149/35 108/148/33 56/94/199 57/95/198
s 5
f 110/150/39 109/149/38 57/95/197 58/96/196
f 111/151/41 110/150/39 58/96/196 59/97/195
f 112/152/43 111/151/41 59/97/195 60/98/194
f 113/153/45 112/152/43 60/98/194 61/99/193
f 114/155/47 113/153/45 61/99/193 62/101/192
f 115/156/93 114/154/47 62/100/192 63/102/191
f 116/157/101 115/156/93 63/102/191 64/103/190
f 117/158/109 116/157/101 64/103/190 65/104/189
s 1
f 118/159/3 117/158/2 65/104/188 66/105/187
s 2
f 67/106/185 119/160/106 118/159/114 66/105/186
f 68/107/184 120/161/98 119/160/106 67/106/185
f 69/108/183 121/162/6 120/161/98 68/107/184
f 122/163/7 121/162/6 69/108/183 70/109/182
f 123/164/9 122/163/7 70/109/182 71/110/181
f 124/165/11 123/164/9 71/110/181 72/111/180
f 125/166/13 124/165/11 72/111/180 73/112/179
f 126/167/15 125/166/13 73/112/179 74/113/178
s 3
f 127/168/19 126/167/18 74/113/177 75/114/176
f 128/169/21 127/168/19 75/114/176 76/115/175
f 129/170/23 128/169/21 76/115/175 77/116/174
f 130/171/25 129/170/23 77/116/174 78/117/173
s 6
f 21/172/203 130/173/204 105/174/205 23/175/206
f 53/176/207 105/177/205 130/178/204 78/179/208
f 78/180/208 79/181/209 104/182/210 53/183/207
f 24/184/50 104/185/210 79/186/209 22/187/51
