# This file uses centimeters as units for non-parametric coordinates.

g default
v 0.300000 0.000000 0.010000
v -0.300000 0.000000 0.010000
v 0.300000 1.000000 0.010000
v -0.300000 1.000000 0.010000
v -0.300000 0.000000 -0.010000
v 0.300000 0.000000 -0.010000
v -0.300000 1.000000 -0.010000
v 0.300000 1.000000 -0.010000
v 0.280000 0.020000 0.022000
v -0.280000 0.020000 0.022000
v -0.280000 0.980000 0.022000
v 0.280000 0.980000 0.022000
v 0.260000 0.040000 0.010000
v -0.260000 0.040000 0.010000
v -0.260000 0.960000 0.010000
v 0.260000 0.960000 0.010000
v 0.260000 0.040000 -0.008000
v -0.260000 0.040000 -0.008000
v -0.260000 0.960000 -0.008000
v 0.260000 0.960000 -0.008000
vt 0.521540 0.078889
vt 0.573595 0.078889
vt 0.573595 0.026834
vt 0.521540 0.026834
vt 0.521540 0.078889
vt 0.573595 0.078889
vt 0.573595 0.026834
vt 0.521540 0.026834
vt 0.571860 0.027875
vt 0.523276 0.027875
vt 0.523276 0.077848
vt 0.571860 0.077848
vt 0.570125 0.028916
vt 0.525011 0.028916
vt 0.525011 0.076807
vt 0.570125 0.076807
vt 0.570125 0.076807
vt 0.525011 0.076807
vt 0.525011 0.028916
vt 0.570125 0.028916
vn 0.000000 0.000000 -1.000000
vn 0.000000 0.000000 -1.000000
vn 0.000000 0.000000 -1.000000
vn 0.000000 0.000000 -1.000000
vn 0.000000 1.000000 0.000000
vn 0.000000 1.000000 0.000000
vn 0.000000 1.000000 0.000000
vn 0.000000 1.000000 0.000000
vn 0.000000 -1.000000 0.000000
vn 0.000000 -1.000000 0.000000
vn 0.000000 -1.000000 0.000000
vn 0.000000 -1.000000 0.000000
vn 1.000000 0.000000 0.000000
vn 1.000000 0.000000 0.000000
vn 1.000000 0.000000 0.000000
vn 1.000000 0.000000 0.000000
vn -1.000000 0.000000 0.000000
vn -1.000000 0.000000 0.000000
vn -1.000000 0.000000 0.000000
vn -1.000000 0.000000 0.000000
vn 0.000000 -0.514496 0.857493
vn 0.000000 -0.514496 0.857493
vn 0.000000 -0.514496 0.857493
vn 0.000000 -0.514496 0.857493
vn -0.514496 0.000000 0.857493
vn -0.514496 0.000000 0.857493
vn -0.514496 0.000000 0.857493
vn -0.514496 0.000000 0.857493
vn 0.000000 0.514495 0.857493
vn 0.000000 0.514495 0.857493
vn 0.000000 0.514495 0.857493
vn 0.000000 0.514495 0.857493
vn 0.514496 0.000000 0.857493
vn 0.514496 0.000000 0.857493
vn 0.514496 0.000000 0.857493
vn 0.514496 0.000000 0.857493
vn 0.000000 0.514496 0.857493
vn 0.000000 0.514496 0.857493
vn 0.000000 0.514496 0.857493
vn 0.000000 0.514496 0.857493
vn 0.514496 0.000000 0.857493
vn 0.514496 0.000000 0.857493
vn 0.514496 0.000000 0.857493
vn 0.514496 0.000000 0.857493
vn 0.000000 -0.514498 0.857492
vn 0.000000 -0.514498 0.857492
vn 0.000000 -0.514498 0.857492
vn 0.000000 -0.514498 0.857492
vn -0.514496 0.000000 0.857493
vn -0.514496 0.000000 0.857493
vn -0.514496 0.000000 0.857493
vn -0.514496 0.000000 0.857493
vn 0.000000 0.000000 1.000000
vn 0.000000 0.000000 1.000000
vn 0.000000 0.000000 1.000000
vn 0.000000 0.000000 1.000000
vn 0.000000 1.000000 0.000000
vn 0.000000 1.000000 0.000000
vn 0.000000 1.000000 0.000000
vn 0.000000 1.000000 0.000000
vn 1.000000 0.000000 0.000000
vn 1.000000 0.000000 0.000000
vn 1.000000 0.000000 0.000000
vn 1.000000 0.000000 0.000000
vn 0.000000 -1.000000 0.000000
vn 0.000000 -1.000000 0.000000
vn 0.000000 -1.000000 0.000000
vn 0.000000 -1.000000 0.000000
vn -1.000000 0.000000 0.000000
vn -1.000000 0.000000 0.000000
vn -1.000000 0.000000 0.000000
vn -1.000000 0.000000 0.000000
s off
g PictureFrame
f 7/1/1 8/2/2 6/3/3 5/4/4
f 4/5/5 3/6/6 8/2/7 7/1/8
f 1/7/9 2/8/10 5/4/11 6/3/12
f 8/2/13 3/6/14 1/7/15 6/3/16
f 4/5/17 7/1/18 5/4/19 2/8/20
f 9/9/21 10/10/22 2/8/23 1/7/24
f 10/10/25 11/11/26 4/5/27 2/8/28
f 11/11/29 12/12/30 3/6/31 4/5/32
f 12/12/33 9/9/34 1/7/35 3/6/36
f 13/13/37 14/14/38 10/10/39 9/9/40
f 14/14/41 15/15/42 11/11/43 10/10/44
f 15/15/45 16/16/46 12/12/47 11/11/48
f 16/16/49 13/13/50 9/9/51 12/12/52
f 20/17/53 19/18/54 18/19/55 17/20/56
f 17/20/57 18/19/58 14/14/59 13/13/60
f 18/19/61 19/18/62 15/15/63 14/14/64
f 19/18/65 20/17/66 16/16/67 15/15/68
f 20/17/69 17/20/70 13/13/71 16/16/72
