# This file uses centimeters as units for non-parametric coordinates.

g default
v 0.035000 0.799996 -0.000599
v 0.030311 0.799992 -0.018099
v 0.017500 0.799989 -0.030910
v -0.000000 0.799988 -0.035599
v -0.017500 0.799989 -0.030910
v -0.030311 0.799992 -0.018099
v -0.035000 0.799996 -0.000599
v -0.030311 0.800000 0.016901
v -0.017500 0.800003 0.029712
v 0.000000 0.800004 0.034401
v 0.017500 0.800003 0.029712
v 0.030311 0.800000 0.016901
v 0.035000 -0.000004 -0.000413
v 0.030311 -0.000008 -0.017913
v 0.017500 -0.000011 -0.030724
v -0.000000 -0.000012 -0.035413
v -0.017500 -0.000011 -0.030724
v -0.030311 -0.000008 -0.017913
v -0.035000 -0.000004 -0.000413
v -0.030311 0.000000 0.017087
v -0.017500 0.000003 0.029898
v 0.000000 0.000004 0.034587
v 0.017500 0.000003 0.029898
v 0.030311 0.000000 0.017087
v 0.020449 0.799999 0.011207
v 0.011806 0.800001 0.019850
v 0.000000 0.800001 0.023013
v -0.011806 0.800001 0.019850
v -0.020449 0.799999 0.011207
v -0.023612 0.799996 -0.000599
v -0.020449 0.799993 -0.012405
v -0.011806 0.799991 -0.021048
v -0.000000 0.799990 -0.024211
v 0.011806 0.799991 -0.021048
v 0.020449 0.799993 -0.012405
v 0.023612 0.799996 -0.000599
v 0.020449 0.879999 0.011188
v 0.011806 0.880001 0.019831
v 0.000000 0.880001 0.022994
v -0.011806 0.880001 0.019831
v -0.020449 0.879999 0.011188
v -0.023612 0.879996 -0.000618
v -0.020449 0.879993 -0.012424
v -0.011806 0.879991 -0.021066
v -0.000000 0.879990 -0.024230
v 0.011806 0.879991 -0.021066
v 0.020449 0.879993 -0.012424
v 0.023612 0.879996 -0.000618
v 0.010586 0.879997 0.005494
v 0.006112 0.879998 0.009969
v 0.000000 0.879999 0.011606
v -0.006112 0.879998 0.009969
v -0.010586 0.879997 0.005494
v -0.012224 0.879996 -0.000618
v -0.010586 0.879995 -0.006730
v -0.006112 0.879993 -0.011204
v 0.000000 0.879993 -0.012841
v 0.006112 0.879993 -0.011204
v 0.010586 0.879995 -0.006730
v 0.012224 0.879996 -0.000618
v 0.010586 0.959997 0.005476
v 0.006112 0.959998 0.009950
v 0.000000 0.959999 0.011588
v -0.006112 0.959998 0.009950
v -0.010586 0.959997 0.005476
v -0.012224 0.959996 -0.000636
v -0.010586 0.959994 -0.006748
v -0.006112 0.959993 -0.011222
v 0.000000 0.959993 -0.012860
v 0.006112 0.959993 -0.011222
v 0.010586 0.959994 -0.006748
v 0.012224 0.959996 -0.000636
vt 0.840302 0.020319
vt 0.828436 0.020320
vt 0.812226 0.020320
vt 0.796016 0.020320
vt 0.784150 0.020319
vt 0.779806 0.020319
vt 0.784150 0.020319
vt 0.796016 0.020319
vt 0.812226 0.020319
vt 0.828436 0.020319
vt 0.840302 0.020319
vt 0.844646 0.020319
vt 0.840302 0.074351
vt 0.844646 0.074352
vt 0.828436 0.074351
vt 0.812226 0.074351
vt 0.796016 0.074351
vt 0.784150 0.074351
vt 0.779806 0.074352
vt 0.784150 0.074352
vt 0.796016 0.074352
vt 0.812226 0.074352
vt 0.828436 0.074352
vt 0.840302 0.074352
vt 0.826348 0.145956
vt 0.818342 0.145956
vt 0.807406 0.145956
vt 0.796471 0.145956
vt 0.788465 0.145956
vt 0.785535 0.145956
vt 0.788465 0.145956
vt 0.796471 0.145956
vt 0.807406 0.145956
vt 0.818342 0.145956
vt 0.826348 0.145956
vt 0.829278 0.145956
vt 0.826348 0.151359
vt 0.818342 0.151360
vt 0.807406 0.151360
vt 0.796471 0.151360
vt 0.788465 0.151359
vt 0.785535 0.151359
vt 0.788465 0.151359
vt 0.796471 0.151359
vt 0.807406 0.151359
vt 0.818342 0.151359
vt 0.826348 0.151359
vt 0.829278 0.151359
vt 0.691216 0.147917
vt 0.687071 0.147917
vt 0.681410 0.147917
vt 0.675749 0.147917
vt 0.671604 0.147917
vt 0.670087 0.147917
vt 0.671604 0.147917
vt 0.675749 0.147917
vt 0.681410 0.147917
vt 0.687071 0.147917
vt 0.691216 0.147917
vt 0.692733 0.147917
vt 0.692733 0.153320
vt 0.691216 0.153320
vt 0.687071 0.153320
vt 0.681410 0.153320
vt 0.675749 0.153320
vt 0.671604 0.153320
vt 0.670087 0.153320
vt 0.671604 0.153320
vt 0.675749 0.153320
vt 0.681410 0.153320
vt 0.687071 0.153320
vt 0.691216 0.153320
vt 0.834097 0.074352
vt 0.831167 0.074352
vt 0.831167 0.074351
vt 0.823162 0.074351
vt 0.812226 0.074351
vt 0.801290 0.074351
vt 0.793285 0.074351
vt 0.790355 0.074352
vt 0.793285 0.074352
vt 0.801290 0.074352
vt 0.812226 0.074352
vt 0.823162 0.074352
vt 0.818729 0.151359
vt 0.817212 0.151359
vt 0.817212 0.151359
vt 0.813068 0.151359
vt 0.807406 0.151359
vt 0.801745 0.151359
vt 0.797601 0.151359
vt 0.796084 0.151359
vt 0.797601 0.151359
vt 0.801745 0.151359
vt 0.807406 0.151359
vt 0.813068 0.151359
vn -0.000000 -1.000000 0.000233
vn -0.000000 -1.000000 0.000233
vn -0.000000 -1.000000 0.000233
vn -0.000000 -1.000000 0.000233
vn -0.000000 -1.000000 0.000233
vn -0.000000 -1.000000 0.000233
vn -0.000000 -1.000000 0.000233
vn -0.000000 -1.000000 0.000233
vn -0.000000 -1.000000 0.000233
vn -0.000000 -1.000000 0.000233
vn -0.000000 -1.000000 0.000233
vn -0.000000 -1.000000 0.000233
vn 0.965926 -0.000060 -0.258819
vn 0.965926 -0.000060 -0.258819
vn 0.965926 -0.000060 -0.258819
vn 0.965926 -0.000060 -0.258819
vn 0.707107 -0.000164 -0.707107
vn 0.707107 -0.000164 -0.707107
vn 0.707107 -0.000164 -0.707107
vn 0.707107 -0.000164 -0.707107
vn 0.258819 -0.000225 -0.965926
vn 0.258819 -0.000225 -0.965926
vn 0.258819 -0.000225 -0.965926
vn 0.258819 -0.000225 -0.965926
vn -0.258819 -0.000225 -0.965926
vn -0.258819 -0.000225 -0.965926
vn -0.258819 -0.000225 -0.965926
vn -0.258819 -0.000225 -0.965926
vn -0.707107 -0.000164 -0.707107
vn -0.707107 -0.000164 -0.707107
vn -0.707107 -0.000164 -0.707107
vn -0.707107 -0.000164 -0.707107
vn -0.965926 -0.000060 -0.258819
vn -0.965926 -0.000060 -0.258819
vn -0.965926 -0.000060 -0.258819
vn -0.965926 -0.000060 -0.258819
vn -0.965926 0.000060 0.258819
vn -0.965926 0.000060 0.258819
vn -0.965926 0.000060 0.258819
vn -0.965926 0.000060 0.258819
vn -0.707107 0.000164 0.707106
vn -0.707107 0.000164 0.707106
vn -0.707107 0.000164 0.707106
vn -0.707107 0.000164 0.707106
vn -0.258818 0.000225 0.965926
vn -0.258818 0.000225 0.965926
vn -0.258818 0.000225 0.965926
vn -0.258818 0.000225 0.965926
vn 0.258818 0.000225 0.965926
vn 0.258818 0.000225 0.965926
vn 0.258818 0.000225 0.965926
vn 0.258818 0.000225 0.965926
vn 0.707107 0.000164 0.707106
vn 0.707107 0.000164 0.707106
vn 0.707107 0.000164 0.707106
vn 0.707107 0.000164 0.707106
vn 0.965926 0.000060 0.258819
vn 0.965926 0.000060 0.258819
vn 0.965926 0.000060 0.258819
vn 0.965926 0.000060 0.258819
vn 0.000002 1.000000 -0.000234
vn 0.000002 1.000000 -0.000234
vn 0.000002 1.000000 -0.000234
vn 0.000002 1.000000 -0.000234
vn -0.000001 1.000000 -0.000229
vn -0.000001 1.000000 -0.000229
vn -0.000001 1.000000 -0.000229
vn -0.000001 1.000000 -0.000229
vn 0.000001 1.000000 -0.000234
vn 0.000001 1.000000 -0.000234
vn 0.000001 1.000000 -0.000234
vn 0.000001 1.000000 -0.000234
vn -0.000002 1.000000 -0.000234
vn -0.000002 1.000000 -0.000234
vn -0.000002 1.000000 -0.000234
vn -0.000002 1.000000 -0.000234
vn -0.000000 1.000000 -0.000234
vn -0.000000 1.000000 -0.000234
vn -0.000000 1.000000 -0.000234
vn -0.000000 1.000000 -0.000234
vn -0.000002 1.000000 -0.000229
vn -0.000002 1.000000 -0.000229
vn -0.000002 1.000000 -0.000229
vn -0.000002 1.000000 -0.000229
vn -0.000005 1.000000 -0.000240
vn -0.000005 1.000000 -0.000240
vn -0.000005 1.000000 -0.000240
vn -0.000005 1.000000 -0.000240
vn -0.000002 1.000000 -0.000237
vn -0.000002 1.000000 -0.000237
vn -0.000002 1.000000 -0.000237
vn -0.000002 1.000000 -0.000237
vn 0.000002 1.000000 -0.000235
vn 0.000002 1.000000 -0.000235
vn 0.000002 1.000000 -0.000235
vn 0.000002 1.000000 -0.000235
vn 0.000005 1.000000 -0.000237
vn 0.000005 1.000000 -0.000237
vn 0.000005 1.000000 -0.000237
vn 0.000005 1.000000 -0.000237
vn 0.000002 1.000000 -0.000229
vn 0.000002 1.000000 -0.000229
vn 0.000002 1.000000 -0.000229
vn 0.000002 1.000000 -0.000229
vn 0.000000 1.000000 -0.000234
vn 0.000000 1.000000 -0.000234
vn 0.000000 1.000000 -0.000234
vn 0.000000 1.000000 -0.000234
vn 0.707106 0.000164 0.707108
vn 0.707106 0.000164 0.707108
vn 0.707106 0.000164 0.707108
vn 0.707106 0.000164 0.707108
vn 0.258820 0.000225 0.965926
vn 0.258820 0.000225 0.965926
vn 0.258820 0.000225 0.965926
vn 0.258820 0.000225 0.965926
vn -0.258820 0.000225 0.965926
vn -0.258820 0.000225 0.965926
vn -0.258820 0.000225 0.965926
vn -0.258820 0.000225 0.965926
vn -0.707106 0.000164 0.707107
vn -0.707106 0.000164 0.707107
vn -0.707106 0.000164 0.707107
vn -0.707106 0.000164 0.707107
vn -0.965926 0.000060 0.258819
vn -0.965926 0.000060 0.258819
vn -0.965926 0.000060 0.258819
vn -0.965926 0.000060 0.258819
vn -0.965926 -0.000060 -0.258819
vn -0.965926 -0.000060 -0.258819
vn -0.965926 -0.000060 -0.258819
vn -0.965926 -0.000060 -0.258819
vn -0.707108 -0.000164 -0.707106
vn -0.707108 -0.000164 -0.707106
vn -0.707108 -0.000164 -0.707106
vn -0.707108 -0.000164 -0.707106
vn -0.258818 -0.000225 -0.965926
vn -0.258818 -0.000225 -0.965926
vn -0.258818 -0.000225 -0.965926
vn -0.258818 -0.000225 -0.965926
vn 0.258818 -0.000225 -0.965926
vn 0.258818 -0.000225 -0.965926
vn 0.258818 -0.000225 -0.965926
vn 0.258818 -0.000225 -0.965926
vn 0.707107 -0.000164 -0.707106
vn 0.707107 -0.000164 -0.707106
vn 0.707107 -0.000164 -0.707106
vn 0.707107 -0.000164 -0.707106
vn 0.965926 -0.000060 -0.258819
vn 0.965926 -0.000060 -0.258819
vn 0.965926 -0.000060 -0.258819
vn 0.965926 -0.000060 -0.258819
vn 0.965926 0.000060 0.258819
vn 0.965926 0.000060 0.258819
vn 0.965926 0.000060 0.258819
vn 0.965926 0.000060 0.258819
vn -0.000002 1.000000 -0.000228
vn -0.000002 1.000000 -0.000228
vn -0.000002 1.000000 -0.000228
vn -0.000002 1.000000 -0.000228
vn 0.000007 1.000000 -0.000237
vn 0.000007 1.000000 -0.000237
vn 0.000007 1.000000 -0.000237
vn 0.000007 1.000000 -0.000237
vn -0.000007 1.000000 -0.000234
vn -0.000007 1.000000 -0.000234
vn -0.000007 1.000000 -0.000234
vn -0.000007 1.000000 -0.000234
vn 0.000002 1.000000 -0.000237
vn 0.000002 1.000000 -0.000237
vn 0.000002 1.000000 -0.000237
vn 0.000002 1.000000 -0.000237
vn -0.000002 1.000000 -0.000219
vn -0.000002 1.000000 -0.000219
vn -0.000002 1.000000 -0.000219
vn -0.000002 1.000000 -0.000219
vn -0.000001 1.000000 -0.000237
vn -0.000001 1.000000 -0.000237
vn -0.000001 1.000000 -0.000237
vn -0.000001 1.000000 -0.000237
vn -0.000001 1.000000 -0.000237
vn -0.000001 1.000000 -0.000237
vn -0.000001 1.000000 -0.000237
vn -0.000001 1.000000 -0.000237
vn 0.000002 1.000000 -0.000224
vn 0.000002 1.000000 -0.000224
vn 0.000002 1.000000 -0.000224
vn 0.000002 1.000000 -0.000224
vn -0.000002 1.000000 -0.000219
vn -0.000002 1.000000 -0.000219
vn -0.000002 1.000000 -0.000219
vn -0.000002 1.000000 -0.000219
vn 0.000001 1.000000 -0.000242
vn 0.000001 1.000000 -0.000242
vn 0.000001 1.000000 -0.000242
vn 0.000001 1.000000 -0.000242
vn 0.000001 1.000000 -0.000237
vn 0.000001 1.000000 -0.000237
vn 0.000001 1.000000 -0.000237
vn 0.000001 1.000000 -0.000237
vn 0.000002 1.000000 -0.000228
vn 0.000002 1.000000 -0.000228
vn 0.000002 1.000000 -0.000228
vn 0.000002 1.000000 -0.000228
vn 0.000000 1.000000 -0.000238
vn 0.000000 1.000000 -0.000238
vn 0.000000 1.000000 -0.000238
vn 0.000000 1.000000 -0.000238
vn 0.000000 1.000000 -0.000238
vn 0.000000 1.000000 -0.000238
vn 0.000000 1.000000 -0.000238
vn 0.000000 1.000000 -0.000238
vn 0.000000 1.000000 -0.000238
vn 0.000000 1.000000 -0.000238
vn 0.000000 1.000000 -0.000238
vn 0.000000 1.000000 -0.000238
vn 0.707105 0.000165 0.707109
vn 0.707105 0.000165 0.707109
vn 0.707105 0.000165 0.707109
vn 0.707105 0.000165 0.707109
vn 0.258822 0.000225 0.965925
vn 0.258822 0.000225 0.965925
vn 0.258822 0.000225 0.965925
vn 0.258822 0.000225 0.965925
vn -0.258822 0.000225 0.965925
vn -0.258822 0.000225 0.965925
vn -0.258822 0.000225 0.965925
vn -0.258822 0.000225 0.965925
vn -0.707105 0.000165 0.707108
vn -0.707105 0.000165 0.707108
vn -0.707105 0.000165 0.707108
vn -0.707105 0.000165 0.707108
vn -0.965926 0.000060 0.258819
vn -0.965926 0.000060 0.258819
vn -0.965926 0.000060 0.258819
vn -0.965926 0.000060 0.258819
vn -0.965926 -0.000060 -0.258819
vn -0.965926 -0.000060 -0.258819
vn -0.965926 -0.000060 -0.258819
vn -0.965926 -0.000060 -0.258819
vn -0.707106 -0.000165 -0.707108
vn -0.707106 -0.000165 -0.707108
vn -0.707106 -0.000165 -0.707108
vn -0.707106 -0.000165 -0.707108
vn -0.258821 -0.000225 -0.965925
vn -0.258821 -0.000225 -0.965925
vn -0.258821 -0.000225 -0.965925
vn -0.258821 -0.000225 -0.965925
vn 0.258822 -0.000225 -0.965925
vn 0.258822 -0.000225 -0.965925
vn 0.258822 -0.000225 -0.965925
vn 0.258822 -0.000225 -0.965925
vn 0.707106 -0.000165 -0.707108
vn 0.707106 -0.000165 -0.707108
vn 0.707106 -0.000165 -0.707108
vn 0.707106 -0.000165 -0.707108
vn 0.965926 -0.000060 -0.258819
vn 0.965926 -0.000060 -0.258819
vn 0.965926 -0.000060 -0.258819
vn 0.965926 -0.000060 -0.258819
vn 0.965926 0.000060 0.258818
vn 0.965926 0.000060 0.258818
vn 0.965926 0.000060 0.258818
vn 0.965926 0.000060 0.258818
s off
g ShuttleSteeringBar
f 24/1/1 23/2/2 22/3/3 21/4/4 20/5/5 19/6/6 18/7/7 17/8/8 16/9/9 15/10/10 14/11/11 13/12/12
f 13/12/13 14/11/14 2/13/15 1/14/16
f 14/11/17 15/10/18 3/15/19 2/13/20
f 15/10/21 16/9/22 4/16/23 3/15/24
f 16/9/25 17/8/26 5/17/27 4/16/28
f 17/8/29 18/7/30 6/18/31 5/17/32
f 18/7/33 19/6/34 7/19/35 6/18/36
f 19/6/37 20/5/38 8/20/39 7/19/40
f 20/5/41 21/4/42 9/21/43 8/20/44
f 21/4/45 22/3/46 10/22/47 9/21/48
f 22/3/49 23/2/50 11/23/51 10/22/52
f 23/2/53 24/1/54 12/24/55 11/23/56
f 24/1/57 13/12/58 1/14/59 12/24/60
f 25/74/61 26/84/62 11/23/63 12/24/64
f 26/84/65 27/83/66 10/22/67 11/23/68
f 27/83/69 28/82/70 9/21/71 10/22/72
f 28/82/73 29/81/74 8/20/75 9/21/76
f 29/81/77 30/80/78 7/19/79 8/20/80
f 30/80/81 31/79/82 6/18/83 7/19/84
f 31/79/85 32/78/86 5/17/87 6/18/88
f 32/78/89 33/77/90 4/16/91 5/17/92
f 33/77/93 34/76/94 3/15/95 4/16/96
f 34/76/97 35/75/98 2/13/99 3/15/100
f 35/75/101 36/73/102 1/14/103 2/13/104
f 36/73/105 25/74/106 12/24/107 1/14/108
f 37/37/109 38/38/110 26/26/111 25/25/112
f 38/38/113 39/39/114 27/27/115 26/26/116
f 39/39/117 40/40/118 28/28/119 27/27/120
f 40/40/121 41/41/122 29/29/123 28/28/124
f 41/41/125 42/42/126 30/30/127 29/29/128
f 42/42/129 43/43/130 31/31/131 30/30/132
f 43/43/133 44/44/134 32/32/135 31/31/136
f 44/44/137 45/45/138 33/33/139 32/32/140
f 45/45/141 46/46/142 34/34/143 33/33/144
f 46/46/145 47/47/146 35/35/147 34/34/148
f 47/47/149 48/48/150 36/36/151 35/35/152
f 48/48/153 37/37/154 25/25/155 36/36/156
f 49/86/157 50/96/158 38/38/159 37/37/160
f 50/96/161 51/95/162 39/39/163 38/38/164
f 51/95/165 52/94/166 40/40/167 39/39/168
f 52/94/169 53/93/170 41/41/171 40/40/172
f 53/93/173 54/92/174 42/42/175 41/41/176
f 54/92/177 55/91/178 43/43/179 42/42/180
f 55/91/181 56/90/182 44/44/183 43/43/184
f 56/90/185 57/89/186 45/45/187 44/44/188
f 57/89/189 58/88/190 46/46/191 45/45/192
f 58/88/193 59/87/194 47/47/195 46/46/196
f 59/87/197 60/85/198 48/48/199 47/47/200
f 60/85/201 49/86/202 37/37/203 48/48/204
f 72/61/205 71/62/206 70/63/207 69/64/208 68/65/209 67/66/210 66/67/211 65/68/212 64/69/213 63/70/214 62/71/215 61/72/216
f 61/72/217 62/71/218 50/50/219 49/49/220
f 62/71/221 63/70/222 51/51/223 50/50/224
f 63/70/225 64/69/226 52/52/227 51/51/228
f 64/69/229 65/68/230 53/53/231 52/52/232
f 65/68/233 66/67/234 54/54/235 53/53/236
f 66/67/237 67/66/238 55/55/239 54/54/240
f 67/66/241 68/65/242 56/56/243 55/55/244
f 68/65/245 69/64/246 57/57/247 56/56/248
f 69/64/249 70/63/250 58/58/251 57/57/252
f 70/63/253 71/62/254 59/59/255 58/58/256
f 71/62/257 72/61/258 60/60/259 59/59/260
f 72/61/261 61/72/262 49/49/263 60/60/264
