# This file uses centimeters as units for non-parametric coordinates.

g default
v -0.034400 0.020374 0.272270
v -0.717600 0.020374 0.272270
v -0.034400 0.461626 0.272270
v -0.717600 0.461626 0.272270
v -0.717600 0.020374 0.253730
v -0.034400 0.020374 0.253730
v -0.717600 0.461626 0.253730
v -0.034400 0.461626 0.253730
v -0.049400 0.035374 0.272270
v -0.702600 0.035374 0.272270
v -0.702600 0.446626 0.272270
v -0.049400 0.446626 0.272270
v -0.049400 0.035374 0.264270
v -0.702600 0.035374 0.264270
v -0.702600 0.446626 0.264270
v -0.049400 0.446626 0.264270
v -0.064400 0.050374 0.264270
v -0.687600 0.050374 0.264270
v -0.687600 0.431626 0.264270
v -0.064400 0.431626 0.264270
v -0.064400 0.050374 0.272270
v -0.687600 0.050374 0.272270
v -0.687600 0.431626 0.272270
v -0.064400 0.431626 0.272270
v -0.088440 0.175374 0.272270
v -0.101128 0.175374 0.272270
v -0.101128 0.306626 0.272270
v -0.088440 0.306626 0.272270
v -0.088440 0.175374 0.297270
v -0.101128 0.175374 0.297270
v -0.101128 0.306626 0.297270
v -0.088440 0.306626 0.297270
v -0.078440 0.165374 0.297270
v -0.111128 0.165374 0.297270
v -0.111128 0.316626 0.297270
v -0.078440 0.316626 0.297270
v -0.078440 0.165374 0.311270
v -0.111128 0.165374 0.311270
v -0.111128 0.316626 0.311270
v -0.078440 0.316626 0.311270
vt 0.649387 0.179830
vt 0.716233 0.179830
vt 0.716233 0.112984
vt 0.649387 0.112984
vt 0.649387 0.179830
vt 0.716233 0.179830
vt 0.716233 0.112984
vt 0.649387 0.112984
vt 0.714765 0.115256
vt 0.650855 0.115256
vt 0.650855 0.177558
vt 0.714765 0.177558
vt 0.714765 0.115256
vt 0.650855 0.115256
vt 0.650855 0.177558
vt 0.714765 0.177558
vt 0.713298 0.117529
vt 0.652322 0.117529
vt 0.652322 0.175286
vt 0.713298 0.175286
vt 0.713298 0.117529
vt 0.652322 0.117529
vt 0.652322 0.175286
vt 0.713298 0.175286
vt 0.300826 0.250722
vt 0.299585 0.250722
vt 0.299585 0.270605
vt 0.300826 0.270605
vt 0.555798 0.033033
vt 0.554556 0.033033
vt 0.554556 0.052917
vt 0.555798 0.052917
vt 0.556776 0.031519
vt 0.553578 0.031519
vt 0.553578 0.054432
vt 0.556776 0.054432
vt 0.556776 0.054432
vt 0.553578 0.054432
vt 0.553578 0.031519
vt 0.556776 0.031519
vt 0.712353 0.025059
vt 0.655672 0.025059
vt 0.654308 0.022892
vt 0.713717 0.022892
vt 0.655672 0.080134
vt 0.654308 0.082301
vt 0.712353 0.080134
vt 0.713717 0.082301
vt 0.710946 0.156349
vt 0.710946 0.136465
vt 0.709704 0.156349
vt 0.709704 0.136465
vt 0.300826 0.270605
vt 0.300826 0.250722
vt 0.299585 0.270605
vt 0.299585 0.250722
vn 0.000000 0.000000 -1.000000
vn 0.000000 0.000000 -1.000000
vn 0.000000 0.000000 -1.000000
vn 0.000000 0.000000 -1.000000
vn 0.000000 1.000000 0.000000
vn 0.000000 1.000000 0.000000
vn 0.000000 1.000000 0.000000
vn 0.000000 1.000000 0.000000
vn 0.000000 -1.000000 0.000000
vn 0.000000 -1.000000 0.000000
vn 0.000000 -1.000000 0.000000
vn 0.000000 -1.000000 0.000000
vn 1.000000 0.000000 0.000000
vn 1.000000 0.000000 0.000000
vn 1.000000 0.000000 0.000000
vn 1.000000 0.000000 0.000000
vn -1.000000 0.000000 0.000000
vn -1.000000 0.000000 0.000000
vn -1.000000 0.000000 0.000000
vn -1.000000 0.000000 0.000000
vn 0.000000 0.000000 1.000000
vn 0.000000 0.000000 1.000000
vn 0.000000 0.000000 1.000000
vn 0.000000 0.000000 1.000000
vn 0.000001 0.000000 1.000000
vn 0.000001 0.000000 1.000000
vn 0.000001 0.000000 1.000000
vn 0.000001 0.000000 1.000000
vn 0.000000 0.000000 1.000000
vn 0.000000 0.000000 1.000000
vn 0.000000 0.000000 1.000000
vn 0.000000 0.000000 1.000000
vn -0.000001 0.000000 1.000000
vn -0.000001 0.000000 1.000000
vn -0.000001 0.000000 1.000000
vn -0.000001 0.000000 1.000000
vn 0.000000 1.000000 0.000000
vn 0.000000 1.000000 0.000000
vn 0.000000 1.000000 0.000000
vn 0.000000 1.000000 0.000000
vn 1.000000 0.000000 0.000000
vn 1.000000 0.000000 0.000000
vn 1.000000 0.000000 0.000000
vn 1.000000 0.000000 0.000000
vn 0.000000 -1.000000 0.000000
vn 0.000000 -1.000000 0.000000
vn 0.000000 -1.000000 0.000000
vn 0.000000 -1.000000 0.000000
vn -1.000000 0.000000 0.000000
vn -1.000000 0.000000 0.000000
vn -1.000000 0.000000 0.000000
vn -1.000000 0.000000 0.000000
vn 0.000000 0.000000 1.000000
vn 0.000000 0.000000 1.000000
vn 0.000000 0.000000 1.000000
vn 0.000000 0.000000 1.000000
vn 0.000000 0.000000 1.000000
vn 0.000000 0.000000 1.000000
vn 0.000000 0.000000 1.000000
vn 0.000000 0.000000 1.000000
vn 0.000000 0.000000 1.000000
vn 0.000000 0.000000 1.000000
vn 0.000000 0.000000 1.000000
vn 0.000000 0.000000 1.000000
vn 0.000000 0.000000 1.000000
vn 0.000000 0.000000 1.000000
vn 0.000000 0.000000 1.000000
vn 0.000000 0.000000 1.000000
vn 0.000000 -1.000000 0.000000
vn 0.000000 -1.000000 0.000000
vn 0.000000 -1.000000 0.000000
vn 0.000000 -1.000000 0.000000
vn -1.000000 0.000000 0.000000
vn -1.000000 0.000000 0.000000
vn -1.000000 0.000000 0.000000
vn -1.000000 0.000000 0.000000
vn 0.000000 1.000000 0.000000
vn 0.000000 1.000000 0.000000
vn 0.000000 1.000000 0.000000
vn 0.000000 1.000000 0.000000
vn 1.000000 0.000000 0.000000
vn 1.000000 0.000000 0.000000
vn 1.000000 0.000000 0.000000
vn 1.000000 0.000000 0.000000
vn 0.000000 0.000000 1.000000
vn 0.000000 0.000000 1.000000
vn 0.000000 0.000000 1.000000
vn 0.000000 0.000000 1.000000
vn 0.000000 0.000000 1.000000
vn 0.000000 0.000000 1.000000
vn 0.000000 0.000000 1.000000
vn 0.000000 0.000000 1.000000
vn 0.000000 0.000000 1.000000
vn 0.000000 0.000000 1.000000
vn 0.000000 0.000000 1.000000
vn 0.000000 0.000000 1.000000
vn 0.000000 0.000000 1.000000
vn 0.000000 0.000000 1.000000
vn 0.000000 0.000000 1.000000
vn 0.000000 0.000000 1.000000
vn 0.000000 -1.000000 0.000000
vn 0.000000 -1.000000 0.000000
vn 0.000000 -1.000000 0.000000
vn 0.000000 -1.000000 0.000000
vn -1.000000 0.000000 0.000000
vn -1.000000 0.000000 0.000000
vn -1.000000 0.000000 0.000000
vn -1.000000 0.000000 0.000000
vn 0.000000 1.000000 0.000000
vn 0.000000 1.000000 0.000000
vn 0.000000 1.000000 0.000000
vn 0.000000 1.000000 0.000000
vn 1.000000 0.000000 0.000000
vn 1.000000 0.000000 0.000000
vn 1.000000 0.000000 0.000000
vn 1.000000 0.000000 0.000000
vn 0.000000 0.000000 -1.000000
vn 0.000000 0.000000 -1.000000
vn 0.000000 0.000000 -1.000000
vn 0.000000 0.000000 -1.000000
vn -0.000001 0.000000 -1.000000
vn -0.000001 0.000000 -1.000000
vn -0.000001 0.000000 -1.000000
vn -0.000001 0.000000 -1.000000
vn 0.000000 0.000000 -1.000000
vn 0.000000 0.000000 -1.000000
vn 0.000000 0.000000 -1.000000
vn 0.000000 0.000000 -1.000000
vn -0.000001 0.000000 -1.000000
vn -0.000001 0.000000 -1.000000
vn -0.000001 0.000000 -1.000000
vn -0.000001 0.000000 -1.000000
vn 0.000000 0.000000 1.000000
vn 0.000000 0.000000 1.000000
vn 0.000000 0.000000 1.000000
vn 0.000000 0.000000 1.000000
vn 0.000000 -1.000000 0.000000
vn 0.000000 -1.000000 0.000000
vn 0.000000 -1.000000 0.000000
vn 0.000000 -1.000000 0.000000
vn -1.000000 0.000000 0.000000
vn -1.000000 0.000000 0.000000
vn -1.000000 0.000000 0.000000
vn -1.000000 0.000000 0.000000
vn 0.000000 1.000000 0.000000
vn 0.000000 1.000000 0.000000
vn 0.000000 1.000000 0.000000
vn 0.000000 1.000000 0.000000
vn 1.000000 0.000000 0.000000
vn 1.000000 0.000000 0.000000
vn 1.000000 0.000000 0.000000
vn 1.000000 0.000000 0.000000
s off
g SinkDoor
f 7/1/1 8/2/2 6/3/3 5/4/4
f 4/5/5 3/6/6 8/2/7 7/1/8
f 1/7/9 2/8/10 5/4/11 6/3/12
f 8/2/13 3/6/14 1/7/15 6/3/16
f 4/5/17 7/1/18 5/4/19 2/8/20
f 9/9/21 10/10/22 2/8/23 1/7/24
f 10/10/25 11/11/26 4/5/27 2/8/28
f 11/11/29 12/12/30 3/6/31 4/5/32
f 12/12/33 9/9/34 1/7/35 3/6/36
f 13/13/37 14/14/38 10/10/39 9/9/40
f 14/14/41 15/15/42 11/11/43 10/10/44
f 15/15/45 16/16/46 12/12/47 11/11/48
f 16/16/49 13/13/50 9/9/51 12/12/52
f 17/41/53 18/42/54 14/43/55 13/44/56
f 18/42/57 19/45/58 15/46/59 14/43/60
f 19/45/61 20/47/62 16/48/63 15/46/64
f 20/47/65 17/41/66 13/44/67 16/48/68
f 21/21/69 22/22/70 18/18/71 17/17/72
f 22/22/73 23/23/74 19/19/75 18/18/76
f 23/23/77 24/24/78 20/20/79 19/19/80
f 24/24/81 21/21/82 17/17/83 20/20/84
f 25/50/85 26/52/86 22/22/87 21/21/88
f 26/52/89 27/51/90 23/23/91 22/22/92
f 27/51/93 28/49/94 24/24/95 23/23/96
f 28/49/97 25/50/98 21/21/99 24/24/100
f 29/54/101 30/56/102 26/26/103 25/25/104
f 30/56/105 31/55/106 27/27/107 26/26/108
f 31/55/109 32/53/110 28/28/111 27/27/112
f 32/53/113 29/54/114 25/25/115 28/28/116
f 33/33/117 34/34/118 30/30/119 29/29/120
f 34/34/121 35/35/122 31/31/123 30/30/124
f 35/35/125 36/36/126 32/32/127 31/31/128
f 36/36/129 33/33/130 29/29/131 32/32/132
f 40/37/133 39/38/134 38/39/135 37/40/136
f 37/40/137 38/39/138 34/34/139 33/33/140
f 38/39/141 39/38/142 35/35/143 34/34/144
f 39/38/145 40/37/146 36/36/147 35/35/148
f 40/37/149 37/40/150 33/33/151 36/36/152
