# This file uses centimeters as units for non-parametric coordinates.

g default
v 0.270000 0.030000 0.000000
v 0.233827 0.030000 -0.135000
v 0.135000 0.030000 -0.233827
v -0.000000 0.030000 -0.270000
v -0.135000 0.030000 -0.233827
v -0.233827 0.030000 -0.135000
v -0.270000 0.030000 0.000000
v -0.233827 0.030000 0.135000
v -0.135000 0.030000 0.233827
v 0.000000 0.030000 0.270000
v 0.135000 0.030000 0.233827
v 0.233827 0.030000 0.135000
v 0.270000 0.000000 0.000000
v 0.233827 0.000000 -0.135000
v 0.135000 0.000000 -0.233827
v -0.000000 0.000000 -0.270000
v -0.135000 0.000000 -0.233827
v -0.233827 0.000000 -0.135000
v -0.270000 0.000000 0.000000
v -0.233827 0.000000 0.135000
v -0.135000 0.000000 0.233827
v 0.000000 0.000000 0.270000
v 0.135000 0.000000 0.233827
v 0.233827 0.000000 0.135000
v 0.063478 0.030000 0.036649
v 0.036649 0.030000 0.063478
v 0.000000 0.030000 0.073298
v -0.036649 0.030000 0.063478
v -0.063478 0.030000 0.036649
v -0.073298 0.030000 -0.000000
v -0.063478 0.030000 -0.036649
v -0.036649 0.030000 -0.063478
v 0.000000 0.030000 -0.073298
v 0.036649 0.030000 -0.063478
v 0.063478 0.030000 -0.036649
v 0.073298 0.030000 0.000000
v 0.063478 1.330000 0.036649
v 0.036649 1.330000 0.063478
v 0.000000 1.330000 0.073298
v -0.036649 1.330000 0.063478
v -0.063478 1.330000 0.036649
v -0.073298 1.330000 -0.000000
v -0.063478 1.330000 -0.036649
v -0.036649 1.330000 -0.063478
v 0.000000 1.330000 -0.073298
v 0.036649 1.330000 -0.063478
v 0.063478 1.330000 -0.036649
v 0.073298 1.330000 0.000000
v 0.126238 1.330000 0.072883
v 0.072883 1.330000 0.126238
v 0.000000 1.330000 0.145767
v -0.072883 1.330000 0.126238
v -0.126238 1.330000 0.072883
v -0.145767 1.330000 0.000000
v -0.126238 1.330000 -0.072883
v -0.072883 1.330000 -0.126238
v 0.000000 1.330000 -0.145767
v 0.072883 1.330000 -0.126238
v 0.126238 1.330000 -0.072883
v 0.145767 1.330000 -0.000000
v 0.126238 1.357000 0.072883
v 0.072883 1.357000 0.126238
v 0.000000 1.357000 0.145767
v -0.072883 1.357000 0.126238
v -0.126238 1.357000 0.072883
v -0.145767 1.357000 0.000000
v -0.126238 1.357000 -0.072883
v -0.072883 1.357000 -0.126238
v 0.000000 1.357000 -0.145767
v 0.072883 1.357000 -0.126238
v 0.126238 1.357000 -0.072883
v 0.145767 1.357000 -0.000000
v 0.664183 1.357000 0.383466
v 0.383466 1.357000 0.664183
v 0.000000 1.357000 0.766932
v -0.383466 1.357000 0.664183
v -0.664183 1.357000 0.383466
v -0.766933 1.357000 0.000000
v -0.664183 1.357000 -0.383466
v -0.383466 1.357000 -0.664183
v 0.000000 1.357000 -0.766933
v 0.383466 1.357000 -0.664183
v 0.664183 1.357000 -0.383467
v 0.766933 1.357000 -0.000000
v 0.664183 1.404000 0.383466
v 0.383466 1.404000 0.664183
v 0.000000 1.404000 0.766932
v -0.383466 1.404000 0.664183
v -0.664183 1.404000 0.383466
v -0.766933 1.404000 0.000000
v -0.664183 1.404000 -0.383466
v -0.383466 1.404000 -0.664183
v 0.000000 1.404000 -0.766933
v 0.383466 1.404000 -0.664183
v 0.664183 1.404000 -0.383467
v 0.766933 1.404000 -0.000000
vt 0.544293 0.041037
vt 0.540497 0.037241
vt 0.535312 0.035852
vt 0.530127 0.037241
vt 0.526331 0.041037
vt 0.524941 0.046223
vt 0.526331 0.051408
vt 0.530127 0.055204
vt 0.535312 0.056594
vt 0.540497 0.055204
vt 0.544293 0.051408
vt 0.545683 0.046223
vt 0.544293 0.051408
vt 0.545683 0.046223
vt 0.540497 0.055204
vt 0.535312 0.056594
vt 0.530127 0.055204
vt 0.526331 0.051408
vt 0.524941 0.046223
vt 0.526331 0.041037
vt 0.530127 0.037241
vt 0.535312 0.035852
vt 0.540497 0.037241
vt 0.544293 0.041037
vt 0.799806 0.067302
vt 0.798776 0.066271
vt 0.797368 0.065894
vt 0.795960 0.066271
vt 0.794930 0.067302
vt 0.794553 0.068710
vt 0.794930 0.070117
vt 0.795960 0.071148
vt 0.797368 0.071525
vt 0.798776 0.071148
vt 0.799806 0.070117
vt 0.800183 0.068710
vt 0.549858 0.048275
vt 0.548828 0.047244
vt 0.547420 0.046867
vt 0.546012 0.047244
vt 0.544982 0.048275
vt 0.544605 0.049682
vt 0.544982 0.051090
vt 0.546012 0.052121
vt 0.547420 0.052498
vt 0.548828 0.052121
vt 0.549858 0.051090
vt 0.550236 0.049682
vt 0.688919 0.036504
vt 0.686869 0.034455
vt 0.684070 0.033705
vt 0.681270 0.034455
vt 0.679221 0.036504
vt 0.678471 0.039304
vt 0.679221 0.042103
vt 0.681270 0.044153
vt 0.684070 0.044903
vt 0.686869 0.044153
vt 0.688919 0.042103
vt 0.689669 0.039304
vt 0.563512 0.145478
vt 0.561463 0.143429
vt 0.558664 0.142679
vt 0.555864 0.143429
vt 0.553815 0.145478
vt 0.553065 0.148278
vt 0.553815 0.151077
vt 0.555864 0.153127
vt 0.558664 0.153877
vt 0.561463 0.153127
vt 0.563512 0.151077
vt 0.564263 0.148278
vt 0.584175 0.133548
vt 0.573393 0.122766
vt 0.558664 0.118819
vt 0.543934 0.122766
vt 0.533152 0.133548
vt 0.529205 0.148278
vt 0.533152 0.163007
vt 0.543934 0.173789
vt 0.558664 0.177736
vt 0.573393 0.173789
vt 0.584175 0.163007
vt 0.588122 0.148278
vt 0.588122 0.148278
vt 0.584175 0.163007
vt 0.573393 0.173789
vt 0.558664 0.177736
vt 0.543934 0.173789
vt 0.533152 0.163007
vt 0.529205 0.148278
vt 0.533152 0.133548
vt 0.543934 0.122766
vt 0.558664 0.118819
vt 0.573393 0.122766
vt 0.584175 0.133548
vt 0.689669 0.039304
vt 0.688919 0.036504
vt 0.688919 0.042103
vt 0.686869 0.044153
vt 0.684070 0.044903
vt 0.681270 0.044153
vt 0.679221 0.042103
vt 0.678471 0.039304
vt 0.679221 0.036504
vt 0.681270 0.034455
vt 0.684070 0.033705
vt 0.686869 0.034455
vt 0.553019 0.049682
vt 0.552269 0.046883
vt 0.552269 0.052482
vt 0.550220 0.054531
vt 0.547420 0.055281
vt 0.544621 0.054531
vt 0.542571 0.052482
vt 0.541821 0.049682
vt 0.542571 0.046883
vt 0.544621 0.044833
vt 0.547420 0.044083
vt 0.550220 0.044833
vt 0.800183 0.068710
vt 0.799806 0.067302
vt 0.799806 0.070117
vt 0.798776 0.071148
vt 0.797368 0.071525
vt 0.795960 0.071148
vt 0.794930 0.070117
vt 0.794553 0.068710
vt 0.794930 0.067302
vt 0.795960 0.066271
vt 0.797368 0.065894
vt 0.798776 0.066271
vt 0.538127 0.046223
vt 0.537750 0.044815
vt 0.537750 0.047631
vt 0.536720 0.048661
vt 0.535312 0.049038
vt 0.533904 0.048661
vt 0.532874 0.047631
vt 0.532497 0.046223
vt 0.532874 0.044815
vt 0.533904 0.043785
vt 0.535312 0.043407
vt 0.536720 0.043785
vn 0.000000 -1.000000 0.000000
vn 0.000000 -1.000000 0.000000
vn 0.000000 -1.000000 0.000000
vn 0.000000 -1.000000 0.000000
vn 0.000000 -1.000000 0.000000
vn 0.000000 -1.000000 0.000000
vn 0.000000 -1.000000 0.000000
vn 0.000000 -1.000000 0.000000
vn 0.000000 -1.000000 0.000000
vn 0.000000 -1.000000 0.000000
vn 0.000000 -1.000000 0.000000
vn 0.000000 -1.000000 0.000000
vn 0.965926 0.000000 -0.258819
vn 0.965926 0.000000 -0.258819
vn 0.965926 0.000000 -0.258819
vn 0.965926 0.000000 -0.258819
vn 0.707107 0.000000 -0.707107
vn 0.707107 0.000000 -0.707107
vn 0.707107 0.000000 -0.707107
vn 0.707107 0.000000 -0.707107
vn 0.258819 0.000000 -0.965926
vn 0.258819 0.000000 -0.965926
vn 0.258819 0.000000 -0.965926
vn 0.258819 0.000000 -0.965926
vn -0.258819 0.000000 -0.965926
vn -0.258819 0.000000 -0.965926
vn -0.258819 0.000000 -0.965926
vn -0.258819 0.000000 -0.965926
vn -0.707107 0.000000 -0.707107
vn -0.707107 0.000000 -0.707107
vn -0.707107 0.000000 -0.707107
vn -0.707107 0.000000 -0.707107
vn -0.965926 0.000000 -0.258819
vn -0.965926 0.000000 -0.258819
vn -0.965926 0.000000 -0.258819
vn -0.965926 0.000000 -0.258819
vn -0.965926 0.000000 0.258819
vn -0.965926 0.000000 0.258819
vn -0.965926 0.000000 0.258819
vn -0.965926 0.000000 0.258819
vn -0.707107 0.000000 0.707107
vn -0.707107 0.000000 0.707107
vn -0.707107 0.000000 0.707107
vn -0.707107 0.000000 0.707107
vn -0.258819 0.000000 0.965926
vn -0.258819 0.000000 0.965926
vn -0.258819 0.000000 0.965926
vn -0.258819 0.000000 0.965926
vn 0.258819 0.000000 0.965926
vn 0.258819 0.000000 0.965926
vn 0.258819 0.000000 0.965926
vn 0.258819 0.000000 0.965926
vn 0.707107 0.000000 0.707107
vn 0.707107 0.000000 0.707107
vn 0.707107 0.000000 0.707107
vn 0.707107 0.000000 0.707107
vn 0.965926 0.000000 0.258819
vn 0.965926 0.000000 0.258819
vn 0.965926 0.000000 0.258819
vn 0.965926 0.000000 0.258819
vn 0.000000 1.000000 0.000000
vn 0.000000 1.000000 0.000000
vn 0.000000 1.000000 0.000000
vn 0.000000 1.000000 0.000000
vn 0.000000 1.000000 -0.000000
vn 0.000000 1.000000 -0.000000
vn 0.000000 1.000000 -0.000000
vn 0.000000 1.000000 -0.000000
vn 0.000000 1.000000 0.000000
vn 0.000000 1.000000 0.000000
vn 0.000000 1.000000 0.000000
vn 0.000000 1.000000 0.000000
vn 0.000000 1.000000 0.000000
vn 0.000000 1.000000 0.000000
vn 0.000000 1.000000 0.000000
vn 0.000000 1.000000 0.000000
vn 0.000000 1.000000 0.000000
vn 0.000000 1.000000 0.000000
vn 0.000000 1.000000 0.000000
vn 0.000000 1.000000 0.000000
vn 0.000000 1.000000 0.000000
vn 0.000000 1.000000 0.000000
vn 0.000000 1.000000 0.000000
vn 0.000000 1.000000 0.000000
vn 0.000000 1.000000 0.000000
vn 0.000000 1.000000 0.000000
vn 0.000000 1.000000 0.000000
vn 0.000000 1.000000 0.000000
vn 0.000000 1.000000 -0.000000
vn 0.000000 1.000000 -0.000000
vn 0.000000 1.000000 -0.000000
vn 0.000000 1.000000 -0.000000
vn 0.000000 1.000000 0.000000
vn 0.000000 1.000000 0.000000
vn 0.000000 1.000000 0.000000
vn 0.000000 1.000000 0.000000
vn 0.000000 1.000000 -0.000000
vn 0.000000 1.000000 -0.000000
vn 0.000000 1.000000 -0.000000
vn 0.000000 1.000000 -0.000000
vn 0.000000 1.000000 0.000000
vn 0.000000 1.000000 0.000000
vn 0.000000 1.000000 0.000000
vn 0.000000 1.000000 0.000000
vn 0.000000 1.000000 0.000000
vn 0.000000 1.000000 0.000000
vn 0.000000 1.000000 0.000000
vn 0.000000 1.000000 0.000000
vn 0.707107 0.000000 0.707106
vn 0.707107 0.000000 0.707106
vn 0.707107 0.000000 0.707106
vn 0.707107 0.000000 0.707106
vn 0.258819 0.000000 0.965926
vn 0.258819 0.000000 0.965926
vn 0.258819 0.000000 0.965926
vn 0.258819 0.000000 0.965926
vn -0.258819 0.000000 0.965926
vn -0.258819 0.000000 0.965926
vn -0.258819 0.000000 0.965926
vn -0.258819 0.000000 0.965926
vn -0.707107 0.000000 0.707107
vn -0.707107 0.000000 0.707107
vn -0.707107 0.000000 0.707107
vn -0.707107 0.000000 0.707107
vn -0.965926 0.000000 0.258820
vn -0.965926 0.000000 0.258820
vn -0.965926 0.000000 0.258820
vn -0.965926 0.000000 0.258820
vn -0.965926 0.000000 -0.258819
vn -0.965926 0.000000 -0.258819
vn -0.965926 0.000000 -0.258819
vn -0.965926 0.000000 -0.258819
vn -0.707107 0.000000 -0.707107
vn -0.707107 0.000000 -0.707107
vn -0.707107 0.000000 -0.707107
vn -0.707107 0.000000 -0.707107
vn -0.258819 0.000000 -0.965926
vn -0.258819 0.000000 -0.965926
vn -0.258819 0.000000 -0.965926
vn -0.258819 0.000000 -0.965926
vn 0.258820 0.000000 -0.965926
vn 0.258820 0.000000 -0.965926
vn 0.258820 0.000000 -0.965926
vn 0.258820 0.000000 -0.965926
vn 0.707107 0.000000 -0.707107
vn 0.707107 0.000000 -0.707107
vn 0.707107 0.000000 -0.707107
vn 0.707107 0.000000 -0.707107
vn 0.965926 0.000000 -0.258819
vn 0.965926 0.000000 -0.258819
vn 0.965926 0.000000 -0.258819
vn 0.965926 0.000000 -0.258819
vn 0.965926 0.000000 0.258819
vn 0.965926 0.000000 0.258819
vn 0.965926 0.000000 0.258819
vn 0.965926 0.000000 0.258819
vn 0.000000 -1.000000 0.000000
vn 0.000000 -1.000000 0.000000
vn 0.000000 -1.000000 0.000000
vn 0.000000 -1.000000 0.000000
vn 0.000000 -1.000000 0.000001
vn 0.000000 -1.000000 0.000001
vn 0.000000 -1.000000 0.000001
vn 0.000000 -1.000000 0.000001
vn 0.000000 -1.000000 -0.000001
vn 0.000000 -1.000000 -0.000001
vn 0.000000 -1.000000 -0.000001
vn 0.000000 -1.000000 -0.000001
vn 0.000000 -1.000000 0.000001
vn 0.000000 -1.000000 0.000001
vn 0.000000 -1.000000 0.000001
vn 0.000000 -1.000000 0.000001
vn 0.000000 -1.000000 0.000000
vn 0.000000 -1.000000 0.000000
vn 0.000000 -1.000000 0.000000
vn 0.000000 -1.000000 0.000000
vn 0.000000 -1.000000 0.000000
vn 0.000000 -1.000000 0.000000
vn 0.000000 -1.000000 0.000000
vn 0.000000 -1.000000 0.000000
vn 0.000000 -1.000000 0.000000
vn 0.000000 -1.000000 0.000000
vn 0.000000 -1.000000 0.000000
vn 0.000000 -1.000000 0.000000
vn 0.000000 -1.000000 -0.000001
vn 0.000000 -1.000000 -0.000001
vn 0.000000 -1.000000 -0.000001
vn 0.000000 -1.000000 -0.000001
vn 0.000000 -1.000000 0.000001
vn 0.000000 -1.000000 0.000001
vn 0.000000 -1.000000 0.000001
vn 0.000000 -1.000000 0.000001
vn 0.000000 -1.000000 0.000002
vn 0.000000 -1.000000 0.000002
vn 0.000000 -1.000000 0.000002
vn 0.000000 -1.000000 0.000002
vn 0.000000 -1.000000 -0.000002
vn 0.000000 -1.000000 -0.000002
vn 0.000000 -1.000000 -0.000002
vn 0.000000 -1.000000 -0.000002
vn 0.000000 -1.000000 0.000002
vn 0.000000 -1.000000 0.000002
vn 0.000000 -1.000000 0.000002
vn 0.000000 -1.000000 0.000002
vn 0.707106 0.000000 0.707107
vn 0.707106 0.000000 0.707107
vn 0.707106 0.000000 0.707107
vn 0.707106 0.000000 0.707107
vn 0.258819 0.000000 0.965926
vn 0.258819 0.000000 0.965926
vn 0.258819 0.000000 0.965926
vn 0.258819 0.000000 0.965926
vn -0.258819 0.000000 0.965926
vn -0.258819 0.000000 0.965926
vn -0.258819 0.000000 0.965926
vn -0.258819 0.000000 0.965926
vn -0.707108 0.000000 0.707106
vn -0.707108 0.000000 0.707106
vn -0.707108 0.000000 0.707106
vn -0.707108 0.000000 0.707106
vn -0.965926 0.000000 0.258820
vn -0.965926 0.000000 0.258820
vn -0.965926 0.000000 0.258820
vn -0.965926 0.000000 0.258820
vn -0.965926 0.000000 -0.258819
vn -0.965926 0.000000 -0.258819
vn -0.965926 0.000000 -0.258819
vn -0.965926 0.000000 -0.258819
vn -0.707106 0.000000 -0.707108
vn -0.707106 0.000000 -0.707108
vn -0.707106 0.000000 -0.707108
vn -0.707106 0.000000 -0.707108
vn -0.258818 0.000000 -0.965926
vn -0.258818 0.000000 -0.965926
vn -0.258818 0.000000 -0.965926
vn -0.258818 0.000000 -0.965926
vn 0.258819 0.000000 -0.965926
vn 0.258819 0.000000 -0.965926
vn 0.258819 0.000000 -0.965926
vn 0.258819 0.000000 -0.965926
vn 0.707105 0.000000 -0.707108
vn 0.707105 0.000000 -0.707108
vn 0.707105 0.000000 -0.707108
vn 0.707105 0.000000 -0.707108
vn 0.965926 0.000000 -0.258820
vn 0.965926 0.000000 -0.258820
vn 0.965926 0.000000 -0.258820
vn 0.965926 0.000000 -0.258820
vn 0.965926 0.000000 0.258819
vn 0.965926 0.000000 0.258819
vn 0.965926 0.000000 0.258819
vn 0.965926 0.000000 0.258819
vn 0.000000 -1.000000 -0.000000
vn 0.000000 -1.000000 -0.000000
vn 0.000000 -1.000000 -0.000000
vn 0.000000 -1.000000 -0.000000
vn 0.000000 -1.000000 0.000000
vn 0.000000 -1.000000 0.000000
vn 0.000000 -1.000000 0.000000
vn 0.000000 -1.000000 0.000000
vn 0.000000 -1.000000 0.000000
vn 0.000000 -1.000000 0.000000
vn 0.000000 -1.000000 0.000000
vn 0.000000 -1.000000 0.000000
vn 0.000000 -1.000000 -0.000000
vn 0.000000 -1.000000 -0.000000
vn 0.000000 -1.000000 -0.000000
vn 0.000000 -1.000000 -0.000000
vn 0.000000 -1.000000 0.000000
vn 0.000000 -1.000000 0.000000
vn 0.000000 -1.000000 0.000000
vn 0.000000 -1.000000 0.000000
vn 0.000000 -1.000000 0.000000
vn 0.000000 -1.000000 0.000000
vn 0.000000 -1.000000 0.000000
vn 0.000000 -1.000000 0.000000
vn 0.000000 -1.000000 0.000000
vn 0.000000 -1.000000 0.000000
vn 0.000000 -1.000000 0.000000
vn 0.000000 -1.000000 0.000000
vn 0.000000 -1.000000 0.000000
vn 0.000000 -1.000000 0.000000
vn 0.000000 -1.000000 0.000000
vn 0.000000 -1.000000 0.000000
vn 0.000000 -1.000000 0.000000
vn 0.000000 -1.000000 0.000000
vn 0.000000 -1.000000 0.000000
vn 0.000000 -1.000000 0.000000
vn 0.000000 -1.000000 0.000000
vn 0.000000 -1.000000 0.000000
vn 0.000000 -1.000000 0.000000
vn 0.000000 -1.000000 0.000000
vn 0.000000 -1.000000 0.000000
vn 0.000000 -1.000000 0.000000
vn 0.000000 -1.000000 0.000000
vn 0.000000 -1.000000 0.000000
vn 0.000000 -1.000000 -0.000000
vn 0.000000 -1.000000 -0.000000
vn 0.000000 -1.000000 -0.000000
vn 0.000000 -1.000000 -0.000000
vn 0.000000 1.000000 0.000000
vn 0.000000 1.000000 0.000000
vn 0.000000 1.000000 0.000000
vn 0.000000 1.000000 0.000000
vn 0.000000 1.000000 0.000000
vn 0.000000 1.000000 0.000000
vn 0.000000 1.000000 0.000000
vn 0.000000 1.000000 0.000000
vn 0.000000 1.000000 0.000000
vn 0.000000 1.000000 0.000000
vn 0.000000 1.000000 0.000000
vn 0.000000 1.000000 0.000000
vn 0.707107 0.000000 0.707106
vn 0.707107 0.000000 0.707106
vn 0.707107 0.000000 0.707106
vn 0.707107 0.000000 0.707106
vn 0.258819 0.000000 0.965926
vn 0.258819 0.000000 0.965926
vn 0.258819 0.000000 0.965926
vn 0.258819 0.000000 0.965926
vn -0.258818 0.000000 0.965926
vn -0.258818 0.000000 0.965926
vn -0.258818 0.000000 0.965926
vn -0.258818 0.000000 0.965926
vn -0.707106 0.000000 0.707107
vn -0.707106 0.000000 0.707107
vn -0.707106 0.000000 0.707107
vn -0.707106 0.000000 0.707107
vn -0.965926 0.000000 0.258819
vn -0.965926 0.000000 0.258819
vn -0.965926 0.000000 0.258819
vn -0.965926 0.000000 0.258819
vn -0.965926 0.000000 -0.258820
vn -0.965926 0.000000 -0.258820
vn -0.965926 0.000000 -0.258820
vn -0.965926 0.000000 -0.258820
vn -0.707107 0.000000 -0.707106
vn -0.707107 0.000000 -0.707106
vn -0.707107 0.000000 -0.707106
vn -0.707107 0.000000 -0.707106
vn -0.258818 0.000000 -0.965926
vn -0.258818 0.000000 -0.965926
vn -0.258818 0.000000 -0.965926
vn -0.258818 0.000000 -0.965926
vn 0.258820 0.000000 -0.965926
vn 0.258820 0.000000 -0.965926
vn 0.258820 0.000000 -0.965926
vn 0.258820 0.000000 -0.965926
vn 0.707107 0.000000 -0.707107
vn 0.707107 0.000000 -0.707107
vn 0.707107 0.000000 -0.707107
vn 0.707107 0.000000 -0.707107
vn 0.965926 0.000000 -0.258820
vn 0.965926 0.000000 -0.258820
vn 0.965926 0.000000 -0.258820
vn 0.965926 0.000000 -0.258820
vn 0.965926 0.000000 0.258819
vn 0.965926 0.000000 0.258819
vn 0.965926 0.000000 0.258819
vn 0.965926 0.000000 0.258819
s off
g Table
f 24/1/1 23/2/2 22/3/3 21/4/4 20/5/5 19/6/6 18/7/7 17/8/8 16/9/9 15/10/10 14/11/11 13/12/12
f 13/12/13 14/11/14 2/13/15 1/14/16
f 14/11/17 15/10/18 3/15/19 2/13/20
f 15/10/21 16/9/22 4/16/23 3/15/24
f 16/9/25 17/8/26 5/17/27 4/16/28
f 17/8/29 18/7/30 6/18/31 5/17/32
f 18/7/33 19/6/34 7/19/35 6/18/36
f 19/6/37 20/5/38 8/20/39 7/19/40
f 20/5/41 21/4/42 9/21/43 8/20/44
f 21/4/45 22/3/46 10/22/47 9/21/48
f 22/3/49 23/2/50 11/23/51 10/22/52
f 23/2/53 24/1/54 12/24/55 11/23/56
f 24/1/57 13/12/58 1/14/59 12/24/60
f 25/134/61 26/144/62 11/23/63 12/24/64
f 26/144/65 27/143/66 10/22/67 11/23/68
f 27/143/69 28/142/70 9/21/71 10/22/72
f 28/142/73 29/141/74 8/20/75 9/21/76
f 29/141/77 30/140/78 7/19/79 8/20/80
f 30/140/81 31/139/82 6/18/83 7/19/84
f 31/139/85 32/138/86 5/17/87 6/18/88
f 32/138/89 33/137/90 4/16/91 5/17/92
f 33/137/93 34/136/94 3/15/95 4/16/96
f 34/136/97 35/135/98 2/13/99 3/15/100
f 35/135/101 36/133/102 1/14/103 2/13/104
f 36/133/105 25/134/106 12/24/107 1/14/108
f 37/122/109 38/132/110 26/26/111 25/25/112
f 38/132/113 39/131/114 27/27/115 26/26/116
f 39/131/117 40/130/118 28/28/119 27/27/120
f 40/130/121 41/129/122 29/29/123 28/28/124
f 41/129/125 42/128/126 30/30/127 29/29/128
f 42/128/129 43/127/130 31/31/131 30/30/132
f 43/127/133 44/126/134 32/32/135 31/31/136
f 44/126/137 45/125/138 33/33/139 32/32/140
f 45/125/141 46/124/142 34/34/143 33/33/144
f 46/124/145 47/123/146 35/35/147 34/34/148
f 47/123/149 48/121/150 36/36/151 35/35/152
f 48/121/153 37/122/154 25/25/155 36/36/156
f 49/110/157 50/120/158 38/38/159 37/37/160
f 50/120/161 51/119/162 39/39/163 38/38/164
f 51/119/165 52/118/166 40/40/167 39/39/168
f 52/118/169 53/117/170 41/41/171 40/40/172
f 53/117/173 54/116/174 42/42/175 41/41/176
f 54/116/177 55/115/178 43/43/179 42/42/180
f 55/115/181 56/114/182 44/44/183 43/43/184
f 56/114/185 57/113/186 45/45/187 44/44/188
f 57/113/189 58/112/190 46/46/191 45/45/192
f 58/112/193 59/111/194 47/47/195 46/46/196
f 59/111/197 60/109/198 48/48/199 47/47/200
f 60/109/201 49/110/202 37/37/203 48/48/204
f 61/98/205 62/108/206 50/50/207 49/49/208
f 62/108/209 63/107/210 51/51/211 50/50/212
f 63/107/213 64/106/214 52/52/215 51/51/216
f 64/106/217 65/105/218 53/53/219 52/52/220
f 65/105/221 66/104/222 54/54/223 53/53/224
f 66/104/225 67/103/226 55/55/227 54/54/228
f 67/103/229 68/102/230 56/56/231 55/55/232
f 68/102/233 69/101/234 57/57/235 56/56/236
f 69/101/237 70/100/238 58/58/239 57/57/240
f 70/100/241 71/99/242 59/59/243 58/58/244
f 71/99/245 72/97/246 60/60/247 59/59/248
f 72/97/249 61/98/250 49/49/251 60/60/252
f 73/73/253 74/74/254 62/62/255 61/61/256
f 74/74/257 75/75/258 63/63/259 62/62/260
f 75/75/261 76/76/262 64/64/263 63/63/264
f 76/76/265 77/77/266 65/65/267 64/64/268
f 77/77/269 78/78/270 66/66/271 65/65/272
f 78/78/273 79/79/274 67/67/275 66/66/276
f 79/79/277 80/80/278 68/68/279 67/67/280
f 80/80/281 81/81/282 69/69/283 68/68/284
f 81/81/285 82/82/286 70/70/287 69/69/288
f 82/82/289 83/83/290 71/71/291 70/70/292
f 83/83/293 84/84/294 72/72/295 71/71/296
f 84/84/297 73/73/298 61/61/299 72/72/300
f 96/85/301 95/86/302 94/87/303 93/88/304 92/89/305 91/90/306 90/91/307 89/92/308 88/93/309 87/94/310 86/95/311 85/96/312
f 85/96/313 86/95/314 74/74/315 73/73/316
f 86/95/317 87/94/318 75/75/319 74/74/320
f 87/94/321 88/93/322 76/76/323 75/75/324
f 88/93/325 89/92/326 77/77/327 76/76/328
f 89/92/329 90/91/330 78/78/331 77/77/332
f 90/91/333 91/90/334 79/79/335 78/78/336
f 91/90/337 92/89/338 80/80/339 79/79/340
f 92/89/341 93/88/342 81/81/343 80/80/344
f 93/88/345 94/87/346 82/82/347 81/81/348
f 94/87/349 95/86/350 83/83/351 82/82/352
f 95/86/353 96/85/354 84/84/355 83/83/356
f 96/85/357 85/96/358 73/73/359 84/84/360
